<svg width="213" height="138" viewBox="0 0 213 138" fill="none" xmlns="http://www.w3.org/2000/svg">
<g filter="url(#filter0_d_70_1614)">
<path d="M5.97748 118.352C6.83098 108.64 8.85173 99.5494 11.9881 91.3122C13.8868 85.964 16.2351 80.2205 18.9304 74.269C21.7791 67.8655 25.0878 61.8716 28.8327 56.3304C30.8611 53.36 33.1071 50.628 35.556 48.1519C38.0606 45.5325 40.8474 43.2832 43.8827 41.4309C46.9611 39.4805 50.3598 38.0751 54.0079 37.2441C57.6643 36.3345 61.5852 36.097 65.6627 36.5383L66.342 36.6336C66.3266 36.8941 66.2658 37.1505 66.2347 37.4205C65.1067 47.6471 67.0897 59.2024 71.8852 70.348C74.3626 75.989 77.6617 81.3324 81.5817 86.0528C85.6857 90.9998 90.4866 94.9782 95.5261 97.6082C98.1735 99.0818 100.867 100.096 103.507 100.613C106.468 101.219 109.281 101.015 111.73 100.017C114.067 98.9649 116.009 97.2276 117.431 94.919C118.852 92.6103 119.721 89.7824 119.98 86.6201C120.446 80.8899 119.055 74.4431 116.048 68.4008C113.317 62.8584 109.827 57.6708 105.778 53.1342C101.818 48.6433 97.4759 44.709 92.9051 41.4702C87.1968 37.4412 81.2548 34.4283 75.3342 32.5608C75.7681 31.3022 76.286 30.1101 76.8843 28.9924C80.3631 22.3496 85.3783 17.2712 91.5671 14.1246C97.3067 11.1344 103.715 9.40976 110.575 9.0094C116.553 8.62024 122.802 9.16645 129.185 10.6359C134.626 12.0317 140.113 13.9983 145.58 16.5118C154.138 20.3469 162.62 25.2055 170.873 31.0006C176.422 34.8428 181.848 39.1081 187.106 43.7599C191.313 47.5201 194.294 50.3816 196.58 52.6551C198.581 54.5967 199.872 55.9272 200.895 56.9164L199.186 56.4643C194.316 55.1753 189.919 54.1047 186.222 53.3058C178.842 51.7311 174.176 51.1049 174.253 52.127C174.329 53.1492 178.83 55.2883 186.214 58.0858C189.92 59.5077 194.303 61.0575 199.184 62.6858L201.035 63.3038C201.832 63.5795 202.625 63.7767 203.405 63.8932C203.904 63.9579 204.392 63.97 204.864 63.9293C205.464 63.879 206.027 63.7214 206.535 63.461C207.582 62.9248 208.335 61.9234 208.683 60.6025C209.023 58.8503 209.044 56.9192 208.745 54.9105L208.376 50.325C205.928 24.7763 202.631 3.78848 200.959 3.50347C199.286 3.21845 199.889 23.6853 202.322 49.2435L202.671 52.6156C201.749 51.3358 200.774 50.1048 199.753 48.9305C196.75 45.3755 193.59 42.0195 190.3 38.8912C184.913 33.6901 179.282 28.9587 173.479 24.757C164.816 18.3945 155.868 13.0788 146.82 8.91988C140.867 6.15682 134.89 4.00944 128.965 2.50565C121.907 0.83432 114.995 0.208799 108.39 0.643662C100.744 1.08626 93.6074 3.02428 87.2294 6.39014C80.0896 10.065 74.3254 15.9906 70.3611 23.7309C69.2089 25.952 68.2999 28.3916 67.648 31.0125C66.7278 30.8732 65.8076 30.7338 64.9132 30.6733C60.3594 30.259 55.9879 30.598 51.9164 31.6813C47.9595 32.7104 44.2817 34.3571 40.9572 36.588C37.7572 38.6724 34.8325 41.1833 32.2191 44.0898C29.7247 46.7542 27.4467 49.6839 25.4 52.8598C21.6942 58.6681 18.4688 64.9598 15.7498 71.6839C13.1707 77.9008 10.9998 83.8207 9.23703 89.4434C6.34984 98.075 4.75957 107.635 4.51768 117.814C4.48757 120.527 4.64374 123.311 4.98481 126.142C5.26621 128.078 5.42365 129.02 5.58568 129.111C5.74771 129.203 5.53013 125.155 6.00905 118.333L5.97748 118.352ZM73.5641 40.6278C73.6399 39.8598 73.775 39.1191 73.91 38.3784C79.6351 40.1138 85.3902 43.0527 90.8863 47.0475C94.897 49.9745 98.6974 53.5011 102.156 57.5052C105.571 61.4073 108.5 65.8538 110.774 70.5893C112.953 75.0831 113.931 79.8516 113.54 84.0732C113.37 86.1578 112.8 88.0227 111.865 89.5465C110.931 91.0703 109.653 92.2188 108.116 92.9171C104.792 93.8919 100.837 93.1502 97.0218 90.8366C93.0317 88.6965 89.2436 85.4954 86.0186 81.5387C82.8359 77.591 80.1732 73.1507 78.19 68.4836C76.178 63.8026 74.7492 59.0028 73.9606 54.2755C73.1441 49.5307 72.9994 44.9228 73.5326 40.6467" fill="#4F1F3C" fill-opacity="0.3" shape-rendering="crispEdges"/>
</g>
<defs>
<filter id="filter0_d_70_1614" x="0.513916" y="0.509766" width="212.441" height="136.603" filterUnits="userSpaceOnUse" color-interpolation-filters="sRGB">
<feFlood flood-opacity="0" result="BackgroundImageFix"/>
<feColorMatrix in="SourceAlpha" type="matrix" values="0 0 0 0 0 0 0 0 0 0 0 0 0 0 0 0 0 0 127 0" result="hardAlpha"/>
<feOffset dy="4"/>
<feGaussianBlur stdDeviation="2"/>
<feComposite in2="hardAlpha" operator="out"/>
<feColorMatrix type="matrix" values="0 0 0 0 0 0 0 0 0 0 0 0 0 0 0 0 0 0 0.25 0"/>
<feBlend mode="normal" in2="BackgroundImageFix" result="effect1_dropShadow_70_1614"/>
<feBlend mode="normal" in="SourceGraphic" in2="effect1_dropShadow_70_1614" result="shape"/>
</filter>
</defs>
</svg>
