<svg width="204" height="127" viewBox="0 0 204 127" fill="none" xmlns="http://www.w3.org/2000/svg">
<path d="M2.06102 115.789C2.908 106.273 4.91331 97.3645 8.02573 89.2928C9.90995 84.0521 12.2403 78.4241 14.915 72.5921C17.742 66.3173 21.0254 60.4439 24.7417 55.014C26.7546 52.1033 28.9834 49.4262 31.4136 46.9999C33.899 44.4332 36.6645 42.229 39.6767 40.414C42.7316 38.5027 46.1043 37.1256 49.7246 36.3113C53.3531 35.42 57.244 35.1873 61.2903 35.6196L61.9644 35.713C61.9492 35.9683 61.8888 36.2196 61.8579 36.4841C60.7386 46.5052 62.7064 57.8283 67.4653 68.7499C69.9237 74.2775 73.1977 79.5136 77.0877 84.1392C81.1603 88.9867 85.9246 92.8851 90.9256 95.4623C93.5528 96.9063 96.2262 97.9004 98.8452 98.4072C101.784 99.0006 104.575 98.8008 107.006 97.8231C109.325 96.7918 111.252 95.0894 112.663 92.8271C114.073 90.5649 114.935 87.7938 115.192 84.695C115.655 79.0799 114.274 72.7628 111.291 66.8418C108.581 61.4109 105.118 56.3275 101.099 51.8821C97.1693 47.4814 92.8605 43.6262 88.3246 40.4525C82.6599 36.5044 76.7633 33.552 70.8879 31.7221C71.3186 30.4887 71.8324 29.3206 72.4262 28.2254C75.8784 21.7161 80.8553 16.7398 86.9968 13.6564C92.6926 10.7262 99.0522 9.03629 105.86 8.64398C111.792 8.26264 117.994 8.79787 124.327 10.2378C129.727 11.6055 135.172 13.5326 140.597 15.9956C149.09 19.7536 157.507 24.5146 165.697 30.1932C171.203 33.9582 176.588 38.1378 181.805 42.6962C185.98 46.3808 188.939 49.1848 191.208 51.4126C193.193 53.3152 194.475 54.6189 195.489 55.5882L193.794 55.1453C188.96 53.8822 184.598 52.833 180.929 52.0502C173.605 50.5071 168.975 49.8935 169.051 50.8951C169.127 51.8968 173.593 53.9928 180.921 56.7342C184.598 58.1275 188.948 59.6461 193.792 61.2417L195.628 61.8472C196.419 62.1175 197.206 62.3107 197.98 62.4248C198.476 62.4883 198.96 62.5001 199.428 62.4602C200.024 62.4109 200.582 62.2565 201.087 62.0014C202.126 61.4759 202.872 60.4946 203.218 59.2003C203.555 57.4832 203.576 55.591 203.28 53.6227L202.914 49.1293C200.484 24.094 197.213 3.52798 195.553 3.24868C193.893 2.9694 194.491 23.025 196.905 48.0695L197.252 51.3739C196.337 50.1198 195.37 48.9135 194.356 47.7628C191.376 44.2793 188.24 40.9907 184.976 37.9253C179.63 32.8287 174.042 28.1924 168.283 24.0751C159.686 17.8404 150.806 12.6316 141.828 8.55626C135.92 5.84872 129.988 3.74449 124.109 2.27091C117.105 0.633176 110.245 0.020227 103.691 0.446355C96.1036 0.880055 89.0216 2.77913 82.6923 6.07735C75.607 9.67838 69.8868 15.4849 65.9528 23.0696C64.8094 25.2461 63.9074 27.6367 63.2605 30.2049C62.3473 30.0684 61.4341 29.9319 60.5465 29.8725C56.0275 29.4666 51.6894 29.7988 47.649 30.8602C43.7224 31.8687 40.0726 33.4823 36.7735 35.6684C33.598 37.7109 30.6956 40.1713 28.1022 43.0194C25.6269 45.6302 23.3663 48.5011 21.3352 51.6131C17.6577 57.3047 14.4569 63.47 11.7587 70.059C9.19929 76.151 7.04494 81.9519 5.29567 87.4616C2.43054 95.9197 0.852414 105.288 0.612369 115.262C0.582488 117.921 0.737462 120.649 1.07593 123.422C1.35518 125.319 1.51142 126.243 1.67221 126.332C1.83301 126.422 1.61709 122.455 2.09235 115.771L2.06102 115.789ZM69.1314 39.627C69.2066 38.8744 69.3406 38.1486 69.4747 37.4228C75.1559 39.1233 80.8671 42.0032 86.3212 45.9177C90.3013 48.7858 94.0727 52.2416 97.5047 56.1652C100.894 59.9889 103.801 64.346 106.057 68.9864C108.219 73.3899 109.19 78.0626 108.801 82.1993C108.633 84.242 108.067 86.0695 107.14 87.5627C106.213 89.0558 104.945 90.1812 103.42 90.8655C100.12 91.8207 96.1956 91.0939 92.4098 88.8268C88.4503 86.7297 84.691 83.593 81.4907 79.7158C78.3323 75.8474 75.69 71.4963 73.7219 66.923C71.7253 62.3361 70.3074 57.6327 69.5248 53.0005C68.7146 48.351 68.5709 43.8357 69.1001 39.6455" fill="black" fill-opacity="0.92"/>
</svg>
