<svg width="227" height="220" viewBox="0 0 227 220" fill="none" xmlns="http://www.w3.org/2000/svg">
<g filter="url(#filter0_d_3_725)">
<mask id="path-1-inside-1_3_725" fill="white">
<path d="M207.721 173.358C203.592 176.646 198.735 178.488 193.605 178.711L191.669 178.71C191.02 178.662 190.359 178.567 189.68 178.477C188.376 178.326 187.072 178.041 185.783 177.623C183.304 176.85 180.869 175.76 178.52 174.372C169.346 168.907 162.379 160.878 154.049 157.699C150.144 155.88 146.01 155.562 142.224 156.788C138.688 158.364 135.926 161.627 134.505 165.908C132.93 170.574 131.698 175.443 130.824 180.462C129.918 185.982 128.305 191.2 126.04 195.929C124.654 198.61 122.721 200.762 120.408 202.2C118.095 203.637 115.47 204.318 112.758 204.183C110.195 204.026 107.625 203.28 105.18 201.985C102.98 200.838 100.851 199.442 98.8248 197.815C94.8611 194.769 91.5208 191.409 87.9028 188.848C84.3676 186.221 80.6257 184.123 76.7659 182.604C73.1081 181.102 69.3213 180.512 65.6389 180.871C62.1449 181.309 58.8892 182.827 56.1625 185.289C50.6735 190.122 46.7458 196.832 42.2354 202.374C40.0305 205.22 37.4795 207.626 34.6559 209.524C31.8946 211.374 28.6802 212.166 25.3782 211.811C22.4597 211.541 19.568 210.301 17.0106 208.223C14.9198 206.438 13.0842 204.208 11.6039 201.654C9.36762 197.739 7.61323 193.477 6.40651 189.026C5.64032 186.273 5.02571 183.479 4.56715 180.662C4.27304 178.742 4.20426 177.703 4.31994 177.701C4.43564 177.699 5.39815 181.651 7.73353 188.576C9.13431 192.748 10.9998 196.711 13.2712 200.341C14.6998 202.553 16.4252 204.457 18.3573 205.953C20.5505 207.609 23.0031 208.542 25.4529 208.654C28.1951 208.842 30.839 208.069 33.0796 206.424C35.583 204.603 37.8257 202.324 39.7418 199.655C41.8132 196.926 43.8158 193.82 46.037 190.737C48.3125 187.362 50.8796 184.311 53.7007 181.63C54.4976 180.982 55.3204 180.28 56.1227 179.655C56.925 179.031 57.8941 178.54 58.8155 178.011C60.7503 177.044 62.8026 176.395 64.9247 176.078C69.2125 175.523 73.6452 176.082 77.947 177.722C82.1963 179.31 86.3251 181.534 90.2361 184.341C92.1771 185.69 94.1066 187.237 95.9333 188.759C97.76 190.281 99.5628 191.783 101.394 193.157C104.785 196.022 108.647 197.771 112.563 198.216C114.38 198.27 116.131 197.77 117.661 196.76C119.201 195.736 120.477 194.242 121.384 192.403C123.288 188.155 124.621 183.499 125.336 178.597C126.231 173.218 127.517 167.999 129.18 163C130.163 160.197 131.532 157.663 133.233 155.501C135.041 153.178 137.274 151.414 139.784 150.328C142.335 149.284 145.08 148.884 147.869 149.147C150.481 149.377 153.096 150.017 155.65 151.053C160.387 153.038 164.946 155.815 169.19 159.301C173.022 162.446 176.987 165.303 181.061 167.856C182.977 168.985 184.962 169.873 186.983 170.505C187.959 170.812 188.945 171.014 189.931 171.109C190.428 171.167 190.913 171.253 191.405 171.288L192.867 171.249C196.802 171.035 200.516 169.572 203.659 166.998C209.869 162.134 214.112 154.357 215.555 145.198C216.602 136.569 215.743 127.498 213.065 118.902C210.593 110.794 207.411 102.96 203.579 95.5488C197.238 83.0025 190.038 71.0772 182.07 59.9225C176.251 51.7688 170.063 44.0187 163.542 36.7175C156.253 28.6971 148.666 21.1153 140.813 14.0041C138.609 12.2654 136.583 10.1751 134.794 7.79539C133.566 9.29603 132.919 11.3983 132.989 13.6533C132.868 16.5269 132.834 19.5277 132.832 22.2514C132.832 27.7961 133.035 32.8038 133.271 37.0433C133.738 45.4991 134.207 50.8142 133.411 50.971C132.616 51.1279 130.792 45.9746 129.252 37.3216C128.395 32.229 127.844 27.1058 127.605 21.9956C127.442 19.0641 127.376 16.135 127.405 12.8654C127.421 11.0135 127.649 9.20231 128.083 7.48524C128.675 5.29231 129.817 3.449 131.357 2.20017C132.887 1.06666 134.645 0.405979 136.498 0.267525C137.952 0.14284 139.42 0.119484 140.894 0.197572C143.649 0.305714 146.314 0.532158 148.789 0.851265C153.238 1.40718 157.683 2.37853 162.087 3.75688C169.569 6.1238 173.884 8.77099 173.704 9.57263C173.524 10.3743 168.893 9.44267 161.56 8.29298C157.887 7.73188 153.557 7.17344 148.727 6.87624C146.309 6.71599 143.791 6.62746 141.18 6.63394C140.535 6.60912 139.92 6.6267 139.25 6.65685C140.297 7.32598 141.561 8.26439 143.354 9.47496C151.883 15.9542 159.991 23.3375 167.574 31.5295C183.902 48.9803 198.034 69.385 209.383 91.8951C213.473 99.8188 216.856 108.202 219.463 116.879C222.491 126.725 223.422 137.105 222.159 146.956C220.373 158.121 215.133 167.564 207.495 173.385"/>
</mask>
<path d="M207.721 173.358C203.592 176.646 198.735 178.488 193.605 178.711L191.669 178.71C191.02 178.662 190.359 178.567 189.68 178.477C188.376 178.326 187.072 178.041 185.783 177.623C183.304 176.85 180.869 175.76 178.52 174.372C169.346 168.907 162.379 160.878 154.049 157.699C150.144 155.88 146.01 155.562 142.224 156.788C138.688 158.364 135.926 161.627 134.505 165.908C132.93 170.574 131.698 175.443 130.824 180.462C129.918 185.982 128.305 191.2 126.04 195.929C124.654 198.61 122.721 200.762 120.408 202.2C118.095 203.637 115.47 204.318 112.758 204.183C110.195 204.026 107.625 203.28 105.18 201.985C102.98 200.838 100.851 199.442 98.8248 197.815C94.8611 194.769 91.5208 191.409 87.9028 188.848C84.3676 186.221 80.6257 184.123 76.7659 182.604C73.1081 181.102 69.3213 180.512 65.6389 180.871C62.1449 181.309 58.8892 182.827 56.1625 185.289C50.6735 190.122 46.7458 196.832 42.2354 202.374C40.0305 205.22 37.4795 207.626 34.6559 209.524C31.8946 211.374 28.6802 212.166 25.3782 211.811C22.4597 211.541 19.568 210.301 17.0106 208.223C14.9198 206.438 13.0842 204.208 11.6039 201.654C9.36762 197.739 7.61323 193.477 6.40651 189.026C5.64032 186.273 5.02571 183.479 4.56715 180.662C4.27304 178.742 4.20426 177.703 4.31994 177.701C4.43564 177.699 5.39815 181.651 7.73353 188.576C9.13431 192.748 10.9998 196.711 13.2712 200.341C14.6998 202.553 16.4252 204.457 18.3573 205.953C20.5505 207.609 23.0031 208.542 25.4529 208.654C28.1951 208.842 30.839 208.069 33.0796 206.424C35.583 204.603 37.8257 202.324 39.7418 199.655C41.8132 196.926 43.8158 193.82 46.037 190.737C48.3125 187.362 50.8796 184.311 53.7007 181.63C54.4976 180.982 55.3204 180.28 56.1227 179.655C56.925 179.031 57.8941 178.54 58.8155 178.011C60.7503 177.044 62.8026 176.395 64.9247 176.078C69.2125 175.523 73.6452 176.082 77.947 177.722C82.1963 179.31 86.3251 181.534 90.2361 184.341C92.1771 185.69 94.1066 187.237 95.9333 188.759C97.76 190.281 99.5628 191.783 101.394 193.157C104.785 196.022 108.647 197.771 112.563 198.216C114.38 198.27 116.131 197.77 117.661 196.76C119.201 195.736 120.477 194.242 121.384 192.403C123.288 188.155 124.621 183.499 125.336 178.597C126.231 173.218 127.517 167.999 129.18 163C130.163 160.197 131.532 157.663 133.233 155.501C135.041 153.178 137.274 151.414 139.784 150.328C142.335 149.284 145.08 148.884 147.869 149.147C150.481 149.377 153.096 150.017 155.65 151.053C160.387 153.038 164.946 155.815 169.19 159.301C173.022 162.446 176.987 165.303 181.061 167.856C182.977 168.985 184.962 169.873 186.983 170.505C187.959 170.812 188.945 171.014 189.931 171.109C190.428 171.167 190.913 171.253 191.405 171.288L192.867 171.249C196.802 171.035 200.516 169.572 203.659 166.998C209.869 162.134 214.112 154.357 215.555 145.198C216.602 136.569 215.743 127.498 213.065 118.902C210.593 110.794 207.411 102.96 203.579 95.5488C197.238 83.0025 190.038 71.0772 182.07 59.9225C176.251 51.7688 170.063 44.0187 163.542 36.7175C156.253 28.6971 148.666 21.1153 140.813 14.0041C138.609 12.2654 136.583 10.1751 134.794 7.79539C133.566 9.29603 132.919 11.3983 132.989 13.6533C132.868 16.5269 132.834 19.5277 132.832 22.2514C132.832 27.7961 133.035 32.8038 133.271 37.0433C133.738 45.4991 134.207 50.8142 133.411 50.971C132.616 51.1279 130.792 45.9746 129.252 37.3216C128.395 32.229 127.844 27.1058 127.605 21.9956C127.442 19.0641 127.376 16.135 127.405 12.8654C127.421 11.0135 127.649 9.20231 128.083 7.48524C128.675 5.29231 129.817 3.449 131.357 2.20017C132.887 1.06666 134.645 0.405979 136.498 0.267525C137.952 0.14284 139.42 0.119484 140.894 0.197572C143.649 0.305714 146.314 0.532158 148.789 0.851265C153.238 1.40718 157.683 2.37853 162.087 3.75688C169.569 6.1238 173.884 8.77099 173.704 9.57263C173.524 10.3743 168.893 9.44267 161.56 8.29298C157.887 7.73188 153.557 7.17344 148.727 6.87624C146.309 6.71599 143.791 6.62746 141.18 6.63394C140.535 6.60912 139.92 6.6267 139.25 6.65685C140.297 7.32598 141.561 8.26439 143.354 9.47496C151.883 15.9542 159.991 23.3375 167.574 31.5295C183.902 48.9803 198.034 69.385 209.383 91.8951C213.473 99.8188 216.856 108.202 219.463 116.879C222.491 126.725 223.422 137.105 222.159 146.956C220.373 158.121 215.133 167.564 207.495 173.385" fill="#FB773F"/>
<path d="M193.605 178.711L193.653 179.708L193.632 179.709L193.61 179.709L193.605 178.711ZM191.669 178.71L191.674 179.709L191.637 179.709L191.6 179.706L191.669 178.71ZM189.68 178.477L189.79 177.485L189.798 177.486L189.807 177.487L189.68 178.477ZM185.783 177.623L186.078 176.67L186.088 176.673L185.783 177.623ZM178.52 174.372L178.013 175.231L178.01 175.229L178.52 174.372ZM154.049 157.699L153.695 158.631L153.662 158.619L153.629 158.603L154.049 157.699ZM142.224 156.788L141.811 155.876L141.86 155.854L141.91 155.838L142.224 156.788ZM134.505 165.908L135.455 166.226L135.454 166.231L134.505 165.908ZM130.824 180.462L129.836 180.295L129.837 180.286L130.824 180.462ZM126.04 195.929L126.944 196.363L126.938 196.377L126.931 196.39L126.04 195.929ZM112.758 204.183L112.713 205.18L112.702 205.179L112.758 204.183ZM105.18 201.985L105.64 201.1L105.646 201.103L105.18 201.985ZM98.8248 197.815L99.4334 197.025L99.4418 197.032L99.4501 197.038L98.8248 197.815ZM87.9028 188.848L87.3261 189.661L87.3167 189.655L87.3074 189.648L87.9028 188.848ZM76.7659 182.604L76.4024 183.532L76.3956 183.53L76.3889 183.527L76.7659 182.604ZM65.6389 180.871L65.5093 179.88L65.5229 179.879L65.5366 179.877L65.6389 180.871ZM56.1625 185.289L56.8365 186.031L56.8272 186.039L56.1625 185.289ZM42.2354 202.374L41.4422 201.761L41.4494 201.752L41.4569 201.743L42.2354 202.374ZM34.6559 209.524L35.2183 210.353L35.2169 210.354L34.6559 209.524ZM25.3782 211.811L25.4658 210.817L25.4732 210.817L25.4805 210.818L25.3782 211.811ZM17.0106 208.223L16.3807 208.996L16.3712 208.989L16.3619 208.981L17.0106 208.223ZM11.6039 201.654L10.7378 202.151L10.7347 202.145L11.6039 201.654ZM6.40651 189.026L7.37115 188.763L7.3729 188.77L6.40651 189.026ZM4.56715 180.662L3.57886 180.818L3.57743 180.808L4.56715 180.662ZM7.73353 188.576L8.68234 188.262L8.68274 188.263L7.73353 188.576ZM13.2712 200.341L12.4303 200.879L12.4264 200.873L12.4226 200.867L13.2712 200.341ZM18.3573 205.953L17.7557 206.749L17.7458 206.741L18.3573 205.953ZM25.4529 208.654L25.4935 207.656L25.5051 207.656L25.5167 207.657L25.4529 208.654ZM33.0796 206.424L32.4836 205.619L32.487 205.616L33.0796 206.424ZM39.7418 199.655L38.9268 199.071L38.9345 199.06L38.9424 199.05L39.7418 199.655ZM46.037 190.737L46.8686 191.298L46.86 191.31L46.8509 191.323L46.037 190.737ZM53.7007 181.63L53.0082 180.905L53.0361 180.879L53.0659 180.855L53.7007 181.63ZM58.8155 178.011L58.3129 177.145L58.3379 177.13L58.3637 177.117L58.8155 178.011ZM64.9247 176.078L64.7716 175.091L64.7812 175.089L64.7908 175.088L64.9247 176.078ZM77.947 177.722L77.5999 178.657L77.5937 178.655L77.947 177.722ZM90.2361 184.341L89.6667 185.16L89.6604 185.156L89.654 185.151L90.2361 184.341ZM101.394 193.157L101.993 192.36L102.016 192.377L102.038 192.396L101.394 193.157ZM112.563 198.216L112.538 199.215L112.496 199.213L112.455 199.209L112.563 198.216ZM117.661 196.76L118.219 197.592L118.216 197.593L117.661 196.76ZM121.384 192.403L122.298 192.814L122.291 192.83L122.283 192.847L121.384 192.403ZM125.336 178.597L124.346 178.448L124.347 178.438L124.349 178.428L125.336 178.597ZM129.18 163L128.229 162.681L128.232 162.674L128.235 162.666L129.18 163ZM133.233 155.501L134.025 156.116L134.022 156.12L133.233 155.501ZM139.784 150.328L139.382 149.411L139.391 149.407L139.4 149.403L139.784 150.328ZM147.869 149.147L147.786 150.142L147.779 150.141L147.869 149.147ZM155.65 151.053L156.023 150.128L156.034 150.133L155.65 151.053ZM169.19 159.301L168.557 160.071L168.556 160.071L169.19 159.301ZM181.061 167.856L180.555 168.715L180.543 168.708L180.532 168.701L181.061 167.856ZM186.983 170.505L187.278 169.552L187.281 169.553L186.983 170.505ZM189.931 171.109L190.021 170.114L190.032 170.115L190.043 170.117L189.931 171.109ZM191.405 171.288L191.437 172.286L191.388 172.287L191.339 172.284L191.405 171.288ZM192.867 171.249L192.926 172.246L192.912 172.247L192.898 172.247L192.867 171.249ZM203.659 166.998L203.022 166.224L203.03 166.217L203.039 166.211L203.659 166.998ZM215.555 145.198L216.549 145.323L216.547 145.341L216.544 145.358L215.555 145.198ZM213.065 118.902L212.109 119.194L212.107 119.188L213.065 118.902ZM203.579 95.5488L202.69 96.0032L202.686 95.9949L203.579 95.5488ZM182.07 59.9225L181.255 60.4995L181.255 60.4991L182.07 59.9225ZM163.542 36.7175L164.282 36.0487L164.288 36.0552L163.542 36.7175ZM140.813 14.0041L141.432 13.222L141.458 13.2431L141.484 13.2661L140.813 14.0041ZM134.794 7.79539L134.017 7.16168L134.824 6.17476L135.594 7.19869L134.794 7.79539ZM132.989 13.6533L133.99 13.6271L133.991 13.6637L133.99 13.7004L132.989 13.6533ZM132.832 22.2514L131.831 22.2464L131.831 22.2458L132.832 22.2514ZM133.271 37.0433L134.271 36.9928L134.271 36.9933L133.271 37.0433ZM129.252 37.3216L128.267 37.4913L128.265 37.4823L129.252 37.3216ZM127.605 21.9956L128.604 21.9453L128.605 21.954L127.605 21.9956ZM127.405 12.8654L128.406 12.8787L128.406 12.8792L127.405 12.8654ZM128.083 7.48524L127.112 7.23657L127.114 7.22873L127.116 7.22092L128.083 7.48524ZM131.357 2.20017L130.723 1.42397L130.74 1.4102L130.757 1.3972L131.357 2.20017ZM136.498 0.267525L136.589 1.26271L136.578 1.26352L136.498 0.267525ZM140.894 0.197572L140.86 1.19568L140.846 1.19495L140.894 0.197572ZM148.789 0.851265L148.669 1.8423L148.665 1.8418L148.789 0.851265ZM162.087 3.75688L162.382 2.80404L162.385 2.80496L162.087 3.75688ZM161.56 8.29298L161.707 7.30571L161.711 7.30633L161.56 8.29298ZM148.727 6.87624L148.67 7.87314L148.665 7.87283L148.727 6.87624ZM141.18 6.63394L141.187 7.63272L141.167 7.63277L141.146 7.63198L141.18 6.63394ZM139.25 6.65685L138.713 7.49701L136.059 5.80035L139.2 5.65908L139.25 6.65685ZM143.354 9.47496L143.912 8.64873L143.935 8.66445L143.958 8.68143L143.354 9.47496ZM167.574 31.5295L166.843 32.2091L166.84 32.2051L167.574 31.5295ZM209.383 91.8951L208.493 92.3489L208.489 92.3403L209.383 91.8951ZM219.463 116.879L218.506 117.167L218.504 117.161L219.463 116.879ZM222.159 146.956L223.153 147.087L223.151 147.103L223.148 147.118L222.159 146.956ZM208.348 174.14C204.059 177.555 199.002 179.476 193.653 179.708L193.556 177.713C198.469 177.5 203.124 175.738 207.093 172.576L208.348 174.14ZM193.61 179.709L191.674 179.709L191.665 177.711L193.6 177.712L193.61 179.709ZM191.6 179.706C190.913 179.655 190.215 179.555 189.552 179.467L189.807 177.487C190.502 177.58 191.126 177.669 191.739 177.714L191.6 179.706ZM189.569 179.469C188.197 179.311 186.829 179.011 185.478 178.573L186.088 176.673C187.316 177.071 188.554 177.342 189.79 177.485L189.569 179.469ZM185.489 178.576C182.931 177.779 180.425 176.657 178.013 175.231L179.027 173.514C181.312 174.864 183.676 175.921 186.078 176.67L185.489 178.576ZM178.01 175.229C173.351 172.454 169.247 169.023 165.351 165.962C161.419 162.873 157.702 160.161 153.695 158.631L154.403 156.766C158.726 158.416 162.657 161.309 166.585 164.395C170.548 167.509 174.515 170.826 179.03 173.515L178.01 175.229ZM153.629 158.603C149.935 156.883 146.062 156.597 142.537 157.738L141.91 155.838C145.957 154.527 150.354 154.878 154.469 156.794L153.629 158.603ZM142.636 157.7C139.398 159.144 136.805 162.162 135.455 166.226L133.554 165.59C135.048 161.092 137.977 157.585 141.811 155.876L142.636 157.7ZM135.454 166.231C133.896 170.847 132.676 175.667 131.81 180.637L129.837 180.286C130.72 175.219 131.964 170.3 133.556 165.585L135.454 166.231ZM131.812 180.628C130.892 186.235 129.252 191.544 126.944 196.363L125.137 195.495C127.358 190.856 128.944 185.729 129.836 180.295L131.812 180.628ZM126.931 196.39C125.472 199.213 123.422 201.506 120.94 203.048L119.876 201.351C122.021 200.018 123.837 198.008 125.15 195.467L126.931 196.39ZM120.94 203.048C118.456 204.592 115.629 205.325 112.713 205.18L112.803 203.185C115.31 203.31 117.734 202.682 119.876 201.351L120.94 203.048ZM112.702 205.179C109.985 205.013 107.276 204.224 104.714 202.866L105.646 201.103C107.974 202.337 110.405 203.038 112.814 203.186L112.702 205.179ZM104.72 202.869C102.458 201.691 100.275 200.258 98.1995 198.592L99.4501 197.038C101.428 198.625 103.501 199.985 105.64 201.1L104.72 202.869ZM98.2162 198.605C96.206 197.06 94.3547 195.436 92.5807 193.903C90.7964 192.361 89.0904 190.91 87.3261 189.661L88.4795 188.034C90.3331 189.346 92.1064 190.856 93.8876 192.396C95.6792 193.945 97.4798 195.524 99.4334 197.025L98.2162 198.605ZM87.3074 189.648C83.839 187.071 80.1746 185.018 76.4024 183.532L77.1295 181.675C81.0768 183.229 84.8961 185.372 88.4982 188.048L87.3074 189.648ZM76.3889 183.527C72.8724 182.083 69.2498 181.523 65.7412 181.865L65.5366 179.877C69.3928 179.501 73.3438 180.12 77.143 181.68L76.3889 183.527ZM65.7685 181.862C62.4872 182.273 59.4192 183.699 56.8364 186.031L55.4886 184.547C58.3592 181.955 61.8025 180.345 65.5093 179.88L65.7685 181.862ZM56.8272 186.039C54.1604 188.387 51.8549 191.208 49.6346 194.167C47.4382 197.094 45.2831 200.218 43.014 203.006L41.4569 201.743C43.6982 198.988 45.7621 195.986 48.0294 192.965C50.2728 189.975 52.6756 187.024 55.4979 184.539L56.8272 186.039ZM43.0287 202.988C40.7627 205.912 38.135 208.393 35.2182 210.353L34.0936 208.695C36.8241 206.86 39.2983 204.528 41.4422 201.761L43.0287 202.988ZM35.2169 210.354C32.2618 212.334 28.8127 213.184 25.2758 212.804L25.4805 210.818C28.5477 211.148 31.5275 210.414 34.095 208.694L35.2169 210.354ZM25.2905 212.806C22.1496 212.515 19.0733 211.184 16.3807 208.996L17.6406 207.45C20.0628 209.418 22.7698 210.567 25.4658 210.817L25.2905 212.806ZM16.3619 208.981C14.178 207.116 12.2708 204.796 10.7378 202.151L12.4701 201.157C13.8975 203.62 15.6616 205.76 17.6594 207.466L16.3619 208.981ZM10.7347 202.145C8.45509 198.155 6.66854 193.813 5.44011 189.282L7.3729 188.77C8.55791 193.141 10.2801 197.324 12.4732 201.163L10.7347 202.145ZM5.44188 189.289C4.66587 186.501 4.04338 183.67 3.5789 180.818L5.55538 180.507C6.00806 183.287 6.61477 186.046 7.37112 188.763L5.44188 189.289ZM3.57743 180.808C3.42876 179.838 3.334 179.071 3.29174 178.536C3.27111 178.275 3.26032 178.037 3.26802 177.849C3.27146 177.765 3.28032 177.629 3.31757 177.489C3.33463 177.425 3.37693 177.283 3.48105 177.136C3.59246 176.978 3.85865 176.709 4.299 176.702L4.3409 178.7C4.76679 178.693 5.01993 178.433 5.1198 178.292C5.21236 178.161 5.24456 178.043 5.253 178.011C5.27302 177.936 5.27057 177.897 5.26878 177.94C5.26603 178.007 5.26913 178.15 5.28798 178.389C5.32473 178.854 5.41142 179.567 5.55685 180.516L3.57743 180.808ZM4.299 176.702C4.65822 176.697 4.89461 176.878 4.97475 176.946C5.07033 177.028 5.12972 177.109 5.15619 177.148C5.2121 177.228 5.24721 177.303 5.26209 177.336C5.29701 177.412 5.32718 177.495 5.35042 177.562C5.40003 177.706 5.46161 177.906 5.53306 178.145C5.67574 178.622 5.88506 179.35 6.15469 180.263C6.69931 182.108 7.51989 184.815 8.68234 188.262L6.78472 188.891C5.61178 185.412 4.78342 182.68 4.23401 180.819C3.95664 179.879 3.75767 179.186 3.61436 178.707C3.54282 178.467 3.49198 178.304 3.45768 178.205C3.43898 178.151 3.43432 178.143 3.4413 178.158C3.4422 178.16 3.46505 178.212 3.51039 178.277C3.53158 178.308 3.58611 178.384 3.67724 178.461C3.75292 178.526 3.98529 178.705 4.3409 178.7L4.299 176.702ZM8.68274 188.263C10.0592 192.363 11.8913 196.254 14.1198 199.816L12.4226 200.867C10.1082 197.168 8.20943 193.133 6.78432 188.889L8.68274 188.263ZM14.112 199.803C15.4837 201.927 17.1336 203.744 18.9688 205.166L17.7458 206.741C15.7169 205.17 13.9158 203.179 12.4303 200.879L14.112 199.803ZM18.9589 205.158C21.0099 206.706 23.2705 207.555 25.4935 207.656L25.4122 209.651C22.7358 209.53 20.0911 208.512 17.7557 206.749L18.9589 205.158ZM25.5167 207.657C28.019 207.829 30.4299 207.126 32.4836 205.619L33.6756 207.23C31.248 209.012 28.3711 209.855 25.389 209.65L25.5167 207.657ZM32.487 205.616C34.8996 203.861 37.0686 201.66 38.9268 199.071L40.5568 200.24C38.5829 202.989 36.2663 205.345 33.6722 207.232L32.487 205.616ZM38.9424 199.05C41.0173 196.316 42.9479 193.309 45.223 190.152L46.8509 191.323C44.6838 194.331 42.6091 197.536 40.5411 200.261L38.9424 199.05ZM45.2052 190.177C47.5192 186.745 50.1325 183.638 53.0082 180.905L54.3932 182.355C51.6267 184.984 49.1058 187.979 46.8686 191.298L45.2052 190.177ZM53.0659 180.855C53.8341 180.23 54.6937 179.498 55.5044 178.866L56.741 180.444C55.9471 181.062 55.1611 181.735 54.3355 182.406L53.0659 180.855ZM55.5044 178.866C56.3798 178.185 57.4572 177.636 58.3129 177.145L59.3182 178.877C58.331 179.444 57.4702 179.876 56.741 180.444L55.5044 178.866ZM58.3637 177.117C60.3915 176.104 62.5445 175.423 64.7716 175.091L65.0777 177.066C63.0606 177.367 61.1091 177.984 59.2673 178.904L58.3637 177.117ZM64.7908 175.088C69.2534 174.51 73.8533 175.094 78.3003 176.789L77.5937 178.655C73.4372 177.07 69.1716 176.536 65.0585 177.069L64.7908 175.088ZM78.2942 176.787C82.6319 178.408 86.8392 180.676 90.8182 183.532L89.654 185.151C85.8111 182.393 81.7607 180.212 77.5999 178.657L78.2942 176.787ZM90.8056 183.523C92.7828 184.896 94.7388 186.466 96.5728 187.994L95.2938 189.524C93.4744 188.009 91.5715 186.483 89.6667 185.16L90.8056 183.523ZM96.5728 187.994C98.4034 189.519 100.186 191.004 101.993 192.36L100.794 193.954C98.9394 192.562 97.1165 191.043 95.2938 189.524L96.5728 187.994ZM102.038 192.396C105.298 195.149 108.977 196.804 112.672 197.224L112.455 199.209C108.317 198.738 104.273 196.894 100.749 193.918L102.038 192.396ZM112.588 197.218C114.196 197.265 115.745 196.824 117.106 195.926L118.216 197.593C116.517 198.715 114.564 199.274 112.538 199.215L112.588 197.218ZM117.103 195.927C118.481 195.012 119.647 193.659 120.485 191.958L122.283 192.847C121.308 194.826 119.92 196.461 118.219 197.592L117.103 195.927ZM120.47 191.991C122.334 187.832 123.642 183.266 124.346 178.448L126.327 178.745C125.599 183.733 124.242 188.477 122.298 192.814L120.47 191.991ZM124.349 178.428C125.252 173 126.55 167.731 128.229 162.681L130.13 163.319C128.485 168.267 127.211 173.435 126.324 178.765L124.349 178.428ZM128.235 162.666C129.251 159.768 130.671 157.137 132.444 154.882L134.022 156.12C132.394 158.19 131.075 160.625 130.125 163.334L128.235 162.666ZM132.441 154.886C134.343 152.442 136.707 150.569 139.382 149.411L140.187 151.244C137.842 152.259 135.739 153.914 134.025 156.116L132.441 154.886ZM139.4 149.403C142.103 148.298 145.01 147.874 147.958 148.153L147.779 150.141C145.149 149.893 142.567 150.271 140.168 151.252L139.4 149.403ZM147.952 148.152C150.669 148.391 153.381 149.057 156.023 150.128L155.277 151.978C152.811 150.978 150.294 150.362 147.786 150.142L147.952 148.152ZM156.034 150.133C160.867 152.158 165.509 154.988 169.824 158.531L168.556 160.071C164.382 156.643 159.907 153.919 155.266 151.974L156.034 150.133ZM169.824 158.531C173.624 161.649 177.554 164.482 181.591 167.011L180.532 168.701C176.42 166.125 172.42 163.242 168.557 160.071L169.824 158.531ZM181.567 166.997C183.42 168.089 185.334 168.945 187.278 169.552L186.689 171.458C184.59 170.802 182.534 169.882 180.555 168.715L181.567 166.997ZM187.281 169.553C188.191 169.84 189.108 170.027 190.021 170.114L189.84 172.103C188.782 172.002 187.727 171.785 186.686 171.457L187.281 169.553ZM190.043 170.117C190.627 170.185 191 170.258 191.471 170.291L191.339 172.284C190.825 172.247 190.23 172.149 189.819 172.101L190.043 170.117ZM191.373 170.289L192.835 170.25L192.898 172.247L191.437 172.286L191.373 170.289ZM192.807 170.252C196.523 170.049 200.036 168.669 203.022 166.224L204.297 167.771C200.996 170.474 197.081 172.02 192.926 172.246L192.807 170.252ZM203.039 166.211C209.016 161.529 213.155 153.996 214.566 145.038L216.544 145.358C215.07 154.719 210.721 162.739 204.28 167.784L203.039 166.211ZM214.561 145.073C215.59 136.589 214.746 127.66 212.109 119.194L214.021 118.609C216.739 127.336 217.613 136.55 216.549 145.323L214.561 145.073ZM212.107 119.188C209.653 111.138 206.493 103.359 202.69 96.0031L204.469 95.0945C208.329 102.56 211.534 110.451 214.023 118.615L212.107 119.188ZM202.686 95.9949C196.367 83.4929 189.194 71.6115 181.255 60.4995L182.884 59.3455C190.883 70.5429 198.11 82.512 204.473 95.1027L202.686 95.9949ZM181.255 60.4991C175.457 52.3745 169.292 44.6531 162.796 37.3799L164.288 36.0552C170.834 43.3843 177.045 51.1631 182.884 59.346L181.255 60.4991ZM162.802 37.3863C155.535 29.3896 147.971 21.8309 140.142 14.7422L141.484 13.2661C149.362 20.3997 156.972 28.0047 164.282 36.0488L162.802 37.3863ZM140.194 14.7863C137.918 12.9906 135.832 10.8369 133.994 8.39209L135.594 7.19869C137.334 9.5133 139.3 11.5402 141.432 13.222L140.194 14.7863ZM135.571 8.4291C134.519 9.71466 133.926 11.5711 133.99 13.6271L131.989 13.6794C131.912 11.2255 132.613 8.8774 134.017 7.16168L135.571 8.4291ZM133.99 13.7004C133.869 16.5543 133.835 19.5398 133.833 22.2571L131.831 22.2458C131.833 19.5157 131.866 16.4995 131.989 13.6062L133.99 13.7004ZM133.833 22.2565C133.833 27.777 134.035 32.7652 134.271 36.9928L132.271 37.0938C132.034 32.8424 131.83 27.8153 131.831 22.2464L133.833 22.2565ZM134.271 36.9933C134.503 41.1992 134.739 44.672 134.816 47.0927C134.854 48.2991 134.855 49.2959 134.788 50.0149C134.755 50.3666 134.701 50.7169 134.598 51.0102C134.522 51.2245 134.279 51.8191 133.61 51.9509L133.213 49.9912C132.743 50.0838 132.659 50.478 132.708 50.3386C132.73 50.2781 132.766 50.1214 132.794 49.8206C132.848 49.2347 132.852 48.3448 132.814 47.1458C132.739 44.7558 132.506 41.3431 132.271 37.0934L134.271 36.9933ZM133.61 51.9509C132.94 52.0831 132.481 51.623 132.325 51.4511C132.11 51.2132 131.921 50.9017 131.752 50.5741C131.408 49.9048 131.037 48.9438 130.657 47.7479C129.891 45.343 129.041 41.8459 128.267 37.4913L130.238 37.1518C131.003 41.4502 131.834 44.8563 132.565 47.1521C132.932 48.3065 133.263 49.1453 133.533 49.6686C133.671 49.9372 133.767 50.0702 133.81 50.1178C133.912 50.2316 133.684 49.8983 133.213 49.9912L133.61 51.9509ZM128.265 37.4823C127.401 32.3507 126.846 27.1877 126.604 22.0372L128.605 21.954C128.842 27.0239 129.389 32.1073 130.24 37.1608L128.265 37.4823ZM126.605 22.0459C126.441 19.0913 126.375 16.1407 126.404 12.8516L128.406 12.8792C128.378 16.1293 128.443 19.0369 128.604 21.9453L126.605 22.0459ZM126.404 12.8521C126.42 10.9243 126.658 9.03393 127.112 7.23657L129.054 7.7339C128.64 9.3707 128.421 11.1027 128.406 12.8787L126.404 12.8521ZM127.116 7.22092C127.754 4.85707 128.998 2.82284 130.723 1.42397L131.991 2.97636C130.636 4.07516 129.596 5.72754 129.05 7.74956L127.116 7.22092ZM130.757 1.3972C132.434 0.154905 134.371 -0.575553 136.418 -0.728474L136.578 1.26352C134.918 1.38751 133.34 1.97842 131.956 3.00313L130.757 1.3972ZM136.407 -0.727596C137.908 -0.856279 139.422 -0.880321 140.942 -0.799809L140.846 1.19495C139.418 1.11929 137.996 1.14196 136.589 1.26264L136.407 -0.727596ZM140.929 -0.800441C143.712 -0.691161 146.407 -0.462293 148.912 -0.139269L148.665 1.8418C146.221 1.52661 143.585 1.30259 140.86 1.19558L140.929 -0.800441ZM148.908 -0.139768C153.419 0.423804 157.923 1.40824 162.382 2.80404L161.791 4.70973C157.444 3.34882 153.057 2.39055 148.669 1.8423L148.908 -0.139768ZM162.385 2.80496C166.171 4.00268 169.179 5.27825 171.236 6.37065C172.259 6.91412 173.077 7.42799 173.642 7.88137C173.921 8.1048 174.177 8.3439 174.364 8.59366C174.513 8.79269 174.806 9.24125 174.681 9.7959L172.727 9.34937C172.648 9.70361 172.845 9.89408 172.763 9.78566C172.72 9.72797 172.61 9.61024 172.392 9.43578C171.965 9.09338 171.27 8.64721 170.302 8.13282C168.375 7.10949 165.484 5.87801 161.789 4.70881L162.385 2.80496ZM174.681 9.7959C174.539 10.4301 173.995 10.6675 173.733 10.749C173.436 10.8408 173.097 10.8672 172.78 10.8713C172.127 10.8797 171.24 10.7934 170.188 10.6547C168.076 10.3763 165.048 9.85005 161.41 9.27964L161.711 7.30633C165.406 7.8856 168.359 8.4 170.441 8.67439C171.486 8.81213 172.248 8.88027 172.744 8.87386C172.863 8.87231 172.956 8.86646 173.026 8.85848C173.06 8.85455 173.086 8.85043 173.104 8.84685C173.123 8.84322 173.131 8.84077 173.13 8.84098C173.13 8.84108 173.116 8.8454 173.092 8.85685C173.069 8.86823 173.03 8.88976 172.985 8.92629C172.886 9.00634 172.773 9.14752 172.727 9.34937L174.681 9.7959ZM161.414 9.28024C157.759 8.72193 153.46 8.16788 148.67 7.87313L148.783 5.87935C153.654 6.17901 158.016 6.74183 161.707 7.30572L161.414 9.28024ZM148.665 7.87283C146.269 7.71401 143.774 7.6263 141.187 7.63272L141.172 5.63516C143.808 5.62862 146.348 5.71797 148.788 5.87965L148.665 7.87283ZM141.146 7.63198C140.544 7.60879 139.962 7.62485 139.3 7.65462L139.2 5.65908C139.878 5.62855 140.527 5.60945 141.214 5.6359L141.146 7.63198ZM139.787 5.81669C140.836 6.487 142.183 7.48086 143.912 8.64873L142.795 10.3012C140.939 9.04792 139.758 8.16496 138.713 7.49701L139.787 5.81669ZM143.958 8.68143C152.536 15.1976 160.687 22.6207 168.308 30.8539L166.84 32.2051C159.295 24.0543 151.231 16.7108 142.75 10.2685L143.958 8.68143ZM168.304 30.8499C184.702 48.3745 198.888 68.8591 210.277 91.4499L208.489 92.3403C197.181 69.9109 183.103 49.5861 166.843 32.2091L168.304 30.8499ZM210.273 91.4413C214.392 99.4208 217.797 107.862 220.422 116.596L218.504 117.161C215.914 108.543 212.555 100.217 208.493 92.3489L210.273 91.4413ZM220.42 116.59C223.489 126.568 224.434 137.091 223.153 147.087L221.166 146.824C222.41 137.12 221.494 126.883 218.506 117.167L220.42 116.59ZM223.148 147.118C221.329 158.487 215.982 168.177 208.105 174.18L206.884 172.59C214.285 166.951 219.417 157.755 221.171 146.794L223.148 147.118Z" fill="black" mask="url(#path-1-inside-1_3_725)"/>
</g>
<defs>
<filter id="filter0_d_3_725" x="0.266846" y="0.152344" width="226.44" height="219.741" filterUnits="userSpaceOnUse" color-interpolation-filters="sRGB">
<feFlood flood-opacity="0" result="BackgroundImageFix"/>
<feColorMatrix in="SourceAlpha" type="matrix" values="0 0 0 0 0 0 0 0 0 0 0 0 0 0 0 0 0 0 127 0" result="hardAlpha"/>
<feOffset dy="4"/>
<feGaussianBlur stdDeviation="2"/>
<feComposite in2="hardAlpha" operator="out"/>
<feColorMatrix type="matrix" values="0 0 0 0 0 0 0 0 0 0 0 0 0 0 0 0 0 0 0.25 0"/>
<feBlend mode="normal" in2="BackgroundImageFix" result="effect1_dropShadow_3_725"/>
<feBlend mode="normal" in="SourceGraphic" in2="effect1_dropShadow_3_725" result="shape"/>
</filter>
</defs>
</svg>
