<svg width="682" height="641" viewBox="0 0 682 641" fill="none" xmlns="http://www.w3.org/2000/svg">

<path d="M107.664 278.974L108.792 279.011C110.361 279.944 110.584 280.124 111.438 281.697C111.324 283.619 111.362 283.953 110.225 285.5C107.7 286.722 105.271 287.078 102.523 287.492C100.961 287.408 100.22 287.02 98.9011 286.226C97.8338 284.392 98.0234 284.018 98.2117 281.99C100.695 279.516 104.31 279.382 107.664 278.974Z" fill="white"/>
<path d="M534.528 227.87C537.263 227.863 537.353 227.77 539.319 228.679L539.359 229.585C537.553 231.108 534.04 231.504 530.863 232.097C529.577 232.158 528.495 232.101 527.223 232.023C525.914 231.176 525.935 231.184 526.021 230.12C527.769 228.87 531.715 228.407 534.528 227.87Z" fill="white"/>
<path d="M159.085 227.916C159.721 227.861 160.296 227.837 160.935 227.906C162.317 228.055 164.135 228.324 164.919 228.921C164.958 229.489 164.899 229.494 164.239 229.926C163.028 230.092 161.731 229.92 160.559 229.737C159.445 229.563 158.804 229.366 158.242 228.854C158.348 228.336 158.37 228.308 159.085 227.916Z" fill="white"/>
<path d="M170.886 274.73C172.837 274.693 174.268 274.725 176.169 274.797C178.411 275.258 178.176 275.262 178.301 275.875C175.806 276.572 172.957 276.588 168.977 276.755L165.119 276.844C162.612 276.835 162.026 276.627 160.537 276.273C160.325 275.659 160.549 275.672 162.252 275.207C165.168 274.899 167.683 274.818 170.886 274.73Z" fill="white"/>
<path d="M525.235 274.807C527.563 274.638 530.628 274.721 532.962 274.884C535.213 275.042 535.902 275.128 537.131 275.729C536.815 276.232 536.471 276.322 535.41 276.7L535.031 276.769C533.353 276.98 527.685 276.703 525.842 276.482C524.43 276.313 524.383 276.176 523.758 275.781C524.001 275.235 523.988 275.201 525.235 274.807Z" fill="white"/>
<path d="M583.039 279.341C585.701 278.36 593.07 279.579 596.039 280.256C597.773 280.65 598.57 281.686 599.484 283.021C599.569 285.301 599.741 285.374 598.16 287.267C596.59 287.643 594.866 287.48 593.269 287.267C589.369 286.747 584.237 286.357 581.707 283.304C581.699 281.146 581.68 281.063 583.039 279.341Z" fill="white"/>
<path d="M99.1749 206.854C100.379 206.557 100.861 206.5 102.156 206.641C105.9 207.049 113.614 209.748 115.868 211.726C115.907 213.286 116.087 213.435 114.605 214.737C113.136 215.039 112.596 215.249 111.087 214.918C107.349 214.098 99.9589 211.731 98.0654 209.354C98.0654 208.073 98.1361 207.934 99.1749 206.854Z" fill="white"/>
<path d="M594.645 208.751C595.489 208.68 596.391 208.705 597.247 208.698L599.151 209.663C599.694 210.689 599.677 210.784 599.005 211.791C595.302 213.375 588.935 214.258 584.369 215.071C582.068 215.135 581.363 215.021 579.639 214.293L579.477 213.007C581.979 210.705 589.85 209.672 594.645 208.751Z" fill="white"/>
<path d="M119.806 215.274C121.11 214.993 121.85 215.04 123.158 215.333C129.837 216.831 136.483 219.098 142.956 221.016C145.709 221.832 150.124 222.667 151.556 224.622C151.284 225.877 150.764 226.448 149.634 227.431L148.226 227.864C144.776 227.567 141.505 226.38 138.315 225.458L121.344 220.33C119.428 219.684 118.813 219.19 118.124 217.805C118.464 216.458 118.487 216.27 119.806 215.274Z" fill="white"/>
<path d="M575.34 215.109L576.239 215.086C578.128 215.177 578.196 215.481 579.37 216.69C579.491 217.783 579.621 218.342 579.086 219.381C578.704 220.122 578.126 220.517 577.367 220.961C574.83 222.441 571.177 223.249 568.303 224.183L550.421 229.993C549.33 229.951 548.593 229.746 547.563 229.458C546.301 228.066 546.278 227.803 546.046 226.127C546.305 225.737 546.485 225.298 546.824 224.958C548.033 223.74 552.366 222.661 554.069 222.09C561.126 219.718 568.045 216.866 575.34 215.109Z" fill="white"/>
<path d="M541.71 274.865L542.343 274.754C545.16 274.4 576 276.528 578.456 277.544C579.258 277.876 579.507 278.449 579.474 278.989C579.417 279.98 578.57 280.41 577.359 281.075C573.577 281.226 569.778 280.734 566.042 280.449L541.716 278.326C540.235 277.676 539.904 277.38 539.359 276.393C539.944 275.384 540.028 275.43 541.71 274.865Z" fill="white"/>
<path d="M151.353 274.901L155.325 274.714C156.816 274.771 157.437 275.311 158.227 275.873C158.272 276.792 158.267 276.975 157.436 277.778C154.574 278.635 150.493 278.823 147.266 279.134L124.839 280.963L124.375 281.038C122.59 281.144 120.05 281.224 118.857 280.399C117.827 279.686 118.091 279.438 118.405 278.628C118.837 278.373 119.177 278.067 119.7 277.863C121.108 277.315 126.267 277.088 128.244 276.935L151.353 274.901Z" fill="white"/>
<path d="M555.545 385.452C556.605 385.555 557.141 385.487 558.044 386.016C559.785 387.034 560.889 388.808 561.846 390.369C565.383 396.134 567.616 403.309 568.792 409.708C577.946 459.489 550.733 507.541 507.134 540.235C491.111 552.251 472.166 562.396 453.277 570.809C426.563 582.706 395.886 589.725 372.593 606.54C363.681 612.972 355.454 622.289 351.968 631.857C351.124 634.173 351.255 638.435 349.579 640.14C348.96 640.769 348.174 641.065 347.184 640.988C346.005 640.895 345.355 640.337 344.87 639.476C344.182 638.252 343.961 636.237 343.594 634.884C342.685 631.538 341.687 628.431 339.833 625.364C332.842 613.796 322.152 605.253 309.35 598.279C295.332 590.644 279.599 585.102 264.43 579.335C242.81 571.116 221.37 562.327 202.219 550.366C189.835 542.63 178.725 533.586 168.752 523.671C139.877 494.963 121.554 456.615 125.293 418.493C126.114 410.127 129.508 402.014 133.835 394.517C135.028 392.449 136.113 390.106 138.223 388.598C140.178 388.524 140.249 388.449 141.934 389.479C142.153 389.882 142.504 390.25 142.593 390.687C142.72 391.307 142.259 392.711 142.132 393.417L140.598 401.283C139.989 405.777 139.985 410.583 140.671 415.071L140.795 415.859C141.183 418.434 141.854 420.682 142.825 423.134C146.287 431.877 152.681 438.349 162.427 442.457C166.148 443.849 170.533 444.965 174.625 444.968C177.533 444.97 181.072 444.024 183.815 444.87C184.55 445.706 185.234 446.549 184.988 447.675C184.825 448.416 184.515 448.802 183.845 449.26C179.518 452.224 170.071 452.044 164.886 451.359C154.821 450.031 147.094 446.328 141.022 439.313C139.038 437.02 137.501 434.488 135.546 432.201C136.62 443.768 138.594 455.113 142.774 466.201C147.588 478.971 154.954 490.794 163.595 501.965C179.25 522.206 198.876 538.403 223.288 551.031C238.903 559.108 255.696 565.627 272.312 572.067C295.765 581.159 319.871 589.459 337.683 605.968C341.394 609.407 344.308 613.573 347.275 617.486C353.508 610.355 359.034 603.788 367.239 598.071C386.899 584.372 411.478 577.037 434.37 568.239C460.431 558.222 485.442 545.131 506.24 528.367C538.364 502.473 559.142 467.824 560.299 429.946L554.549 437.433C548.09 444.702 538.613 449.824 527.833 450.905C523.023 451.388 515.176 451.974 511.218 449.3C510.596 448.293 510.708 447.555 510.804 446.467C511.382 445.66 511.618 445.039 512.762 444.735C514.037 444.397 515.896 444.722 517.222 444.797C522.933 445.121 528.179 444.238 533.294 442.02C551.847 433.983 555.182 415.13 553.52 399.221C553.161 395.776 551.239 390.475 552.466 387.264C553.183 386.492 553.608 385.98 554.74 385.661L555.545 385.452Z" fill="#FB773F"/>
<path d="M348.232 0L349.863 0.118793C350.887 0.716687 351.561 1.22883 352.059 2.17838C353.953 5.78777 354.723 10.4569 355.664 14.3109L359.949 31.7726C373.532 32.4806 387.24 36.8649 398.547 42.7581C420.236 54.0622 432.896 71.398 437.996 91.2984C448.319 92.3912 458.456 94.3981 468.429 96.7542C474.165 98.1097 479.982 99.8672 485.806 100.916C486.911 101.115 487.8 101.079 488.898 100.905C495.392 99.8774 502.55 99.6713 509.158 99.6469C517.861 99.6147 526.917 99.9144 535.327 101.866C543.65 103.798 553.008 106.973 557.193 113.431C561.897 120.687 558.151 129.297 555.06 136.505C543.094 164.402 520.573 189.717 494.021 210.089C483.13 218.444 471.381 225.778 458.976 232.654L456.542 233.993C456.426 234.056 456.211 234.072 456.195 234.183C456.134 234.595 457.107 236.089 457.331 236.516C460.214 242.038 459.396 246.462 457.147 252.012C470.016 265.609 474.924 284.388 469.236 300.84C468.305 303.533 467.004 306.09 465.606 308.649C465.31 309.19 464.001 311.006 464.015 311.512C464.031 312.153 465.379 313.349 465.87 313.917C467.318 315.591 468.605 317.332 469.788 319.132C475.678 328.098 477.952 338.764 476.286 348.778C475.072 356.081 472.292 363.037 467.596 369.42C449.205 394.416 413.915 407.177 380.097 414.266L380.186 484.82C390.655 480.968 397.375 474.992 402.692 466.906C403.72 465.344 404.445 462.925 405.878 461.649C406.723 460.899 407.34 460.965 408.514 460.858C408.987 461.155 409.431 461.402 409.804 461.795C411.92 464.023 411.4 476.337 411.149 479.499C408.911 507.604 378.492 530.562 353.494 548.123L348.797 551.558C335.788 541.481 321.93 532.222 310.635 520.822C296.245 506.298 288.167 492.033 288.072 473.384C288.055 470.062 287.833 466.458 288.472 463.171C288.721 461.888 288.908 461.495 290.222 460.735C292.01 460.81 292.03 460.86 293.394 461.795L293.811 462.754C298.196 472.429 306.834 480.225 318.563 484.54C319.082 482.84 318.732 480.674 318.713 478.921L318.642 467.766L318.334 417.666C311.862 417.318 305.087 415.969 298.81 414.703C281.788 411.269 264.237 406.142 249.926 397.884C226.224 384.204 211.734 365.651 214.835 341.822C215.379 337.64 216.843 333.289 218.203 329.235L222.683 317.435C223.293 316.05 225.2 313.408 225.226 312.146C225.232 311.824 224.381 310.628 224.197 310.293L221.055 304.025C219.867 301.266 219.178 298.466 218.551 295.604C214.874 278.807 219.152 262.667 227.877 247.369C227.465 244.55 227.225 241.148 227.903 238.361L228.458 236.189C228.571 235.765 228.995 235.324 228.803 234.918C228.782 234.874 227.551 234.191 227.413 234.11L221.607 230.48C196.174 214.069 175.807 194.298 159.651 171.666C151.668 160.483 145.058 148.436 140.872 136.006C138.828 129.937 136.949 122.268 139.216 116.093L139.468 115.449C140.683 112.225 142.561 110.006 145.831 107.848C148.635 105.997 152.428 104.625 155.807 103.558C173.353 98.0192 193.571 99.6461 211.844 101.485C213.085 101.61 213.994 101.724 215.218 101.415C219.083 100.439 222.852 98.9696 226.684 97.8721C237.246 94.8481 248.707 91.9734 259.842 90.7965C261.747 79.9054 267.431 69.351 275.592 60.5022C290.877 43.9279 312.95 34.5858 338.256 31.5554L345.516 2.87303C345.978 1.39797 346.621 0.775689 348.232 0Z" fill="#FB773F"/>
<path d="M328.5 415.266L344.909 415.596C345.758 417.617 345.319 420.553 345.334 422.704L345.373 437.402L345.457 493.849L344.225 494.06C338.673 492.4 331.206 489.566 328.272 485.635C327.49 484.588 327.454 483.796 327.977 482.691C328.918 480.703 328.546 478.163 328.553 476.081L328.585 463.655L328.5 415.266Z" fill="#FFFBFB"/>
<path d="M371.329 415.445L372.895 415.266C373.823 416.193 373.257 464.284 373.253 469.976L373.286 479.063C373.308 479.854 373.107 481.551 373.402 482.256C373.586 482.695 374.089 483.003 374.431 483.377C374.384 483.86 374.408 483.942 374.169 484.468C372.401 488.361 366.34 491.216 362.045 493.122L359.524 494.06L358.83 493.657L358.865 417.053L371.329 415.445Z" fill="#FFFBFB"/>
<path d="M367.745 44.7207C381.157 47.3452 394.583 56.1711 401.851 65.9582C409.126 75.7534 411.886 87.5819 408.913 98.9594C407.904 102.825 406.447 106.399 404.567 110.017C403.606 111.763 402.349 113.366 401.146 114.996C400.453 111.28 399.486 107.626 397.613 104.195C393.343 96.373 385.34 92.5702 376.349 89.7433L367.745 44.7207Z" fill="#FFFBFB"/>
<path d="M328.032 44.8509C328.6 44.7315 329.165 44.7414 329.745 44.7207C330.154 46.1469 329.327 48.8483 329.041 50.35L326.685 63.6988L322.669 90.0956C319.616 91.0632 316.522 92.0607 313.763 93.6884C305.398 98.6236 301.388 106.002 299.151 114.996L298.902 114.976L297.313 112.14L294.336 104.988C290.489 93.4653 291.293 80.2193 297.008 69.3952C303.394 57.2968 314.822 48.9221 328.032 44.8509Z" fill="#1E1E1E"/>
<path d="M438.999 83.0532C443.816 83.3344 448.859 84.5902 453.534 85.5782C479.815 91.1303 505.273 101.913 525.987 116.169L514.124 124.376L502.118 132.033C500.09 131.071 498.262 129.53 496.437 128.32C493.962 126.68 491.356 125.193 488.71 123.741C472.847 115.034 455.343 108.442 436.837 104.404C438.289 97.1287 439.157 90.4194 438.999 83.0532Z" fill="#FFFBFB"/>
<path d="M361.059 23.4253C366.487 24.1963 371.481 25.023 376.669 26.5836C399.38 33.4175 416.02 45.7413 425.825 63.4005C434.361 78.7747 434.49 96.9511 426.618 112.497C419.099 127.345 403.581 138.373 385.244 144.576C381.86 145.647 378.5 146.446 374.908 146.94L374.975 138.453C380.492 136.533 385.826 134.444 390.76 131.686C404.652 123.921 414.655 111.135 417.426 97.8631C420.4 83.6177 415.813 69.5447 405.168 57.9564C395.576 47.5155 380.166 39.7889 364.091 37.7449L361.059 23.4253Z" fill="#FFFBFB"/>
<path d="M331.41 23.4253L332.085 23.8274L329.834 37.1217C326.11 37.8029 322.363 38.6634 318.838 39.8963C303.353 45.3134 289.642 55.4199 283.32 68.7335C277.034 81.9684 276.989 96.6926 283.768 109.811C291.028 123.866 302.981 132.709 319.693 138.243L319.863 146.94L309.659 143.847L295.77 137.717C281.539 130.19 270.718 116.238 267.076 102.451C262.477 85.0372 266.554 66.7881 278 51.8645C289.959 36.2733 310.385 27.1842 331.41 23.4253Z" fill="#FFFBFB"/>
<path d="M256.873 83.0532L257.826 83.4645C257.719 91.4138 258.33 98.6156 260.765 106.32C244.65 109.528 227.377 116.381 213.134 123.62L194.223 134.163L182.97 126.556L169.386 116.314C171.03 114.506 174.248 112.915 176.441 111.551C182.464 107.807 189.08 104.83 195.671 101.883C214.969 93.2546 235.538 86.8803 256.873 83.0532Z" fill="#FFFBFB"/>
<path d="M437.764 227.974L438.971 227.864C439.063 228.449 439.097 228.483 439.031 229.171C438.407 235.648 428.873 244.476 423.806 248.611C398.977 268.872 362.912 276.146 330.333 274.486C302.537 273.071 269.16 265.299 250.022 245.775C245.162 240.143 242.291 235.032 240.706 227.999C244.991 229.753 248.955 232.259 253.162 234.199C261.563 238.075 270.374 241.155 279.381 243.65C323.045 255.744 371.985 253.68 414.312 238.357C422.401 235.429 430.082 231.674 437.764 227.974Z" fill="#FFFBFB"/>
<path d="M432.79 112.867C440.657 114.835 448.504 116.679 456.139 119.132C469.758 123.506 483.406 129.797 494.784 136.9C486.511 141.673 476.852 145.75 467.614 149.368C453.466 154.91 439.128 159.66 424.126 163.742C408.139 167.962 391.24 170.614 374.502 172.495L374.431 151.743C381.964 150.344 388.988 148.649 395.815 145.828C412.594 138.897 427.463 126.871 432.79 112.867Z" fill="#FFFBFB"/>
<path d="M427.633 136.292C431.16 136.63 435.438 139.246 438.696 140.825C439.91 141.413 441.634 142.061 442.604 143.037C443.342 143.782 443.435 145.029 443.523 146.039C443.052 147.475 442.819 147.947 441.66 148.855C441.1 148.981 440.875 149.069 440.337 149.07C438.944 149.072 437.478 148.067 436.244 147.434C433.647 146.103 428.081 144.02 426.329 141.707C425.65 140.812 425.592 139.781 425.798 138.675C426.026 137.451 426.745 136.969 427.633 136.292Z" fill="white"/>
<path d="M262.181 114.997H263.031C264.377 116.114 264.883 117.802 265.704 119.162C266.752 120.896 268.029 122.583 269.343 124.217C281.433 139.256 300.46 147.065 323.17 151.391L323.163 172.495C304.918 171.026 287.553 168.756 270.067 164.595C244.729 158.732 219.371 149.458 198.359 137.618C203.106 134.823 208.436 132.486 213.662 130.195C228.475 123.701 245.334 117.984 262.181 114.997Z" fill="#FFFBFB"/>
<path d="M266.45 142.681L268.755 142.69C269.9 142.817 270.704 143.178 271.334 143.733C272.148 144.449 271.933 145.206 271.677 145.998C266.814 148.166 260.121 149.62 254.52 151.069C254.119 151.144 253.869 151.208 253.413 151.198C252.024 151.168 251.221 150.906 250.248 150.347C249.615 149.427 249.465 148.969 249.781 147.99C251.943 146.532 255.133 145.971 258.065 145.187L266.45 142.681Z" fill="white"/>
<path d="M348.634 6.38867C350.41 10.9663 350.786 16.4421 351.786 21.1866L357.2 46.137C360.571 64.3032 365.694 82.322 367.261 100.655C368.305 112.875 367.389 125.248 367.032 137.485L366.782 171.851L352.737 172.495L352.56 136.23C352.585 131.415 353.402 125.683 352.52 120.956C352.342 120.001 351.848 119.606 350.857 119.106L350.041 118.711L349.528 118.668C348.127 118.622 346.695 118.929 345.713 119.748C345.079 120.277 344.88 120.803 344.828 121.512C344.398 127.241 344.878 133.202 344.91 138.952L344.889 172.478L331.054 172.327L330.794 140.181C330.374 128.691 329.417 117.171 330.088 105.672C330.978 90.4246 334.448 75.8107 337.416 60.7703L348.634 6.38867Z" fill="#FFFBFB"/>
<path d="M447.536 251.403L448.647 251.289C455.441 259.781 458.406 271.61 456.149 281.382C452.971 295.14 440.169 306.141 425.694 313.915C393.159 331.387 349.436 335.374 311.104 329.969C283.846 326.126 258.625 317.791 242.418 299.703L237.365 292.642C229.734 280.068 230.42 264.283 236.5 251.384C240.834 255.247 245.295 258.785 250.443 262.018C280.665 281 327.091 285.653 364.798 282.638C395.334 280.197 427.807 270.215 447.536 251.403Z" fill="#FFFBFB"/>
<path d="M451.753 310.917C452.272 311.226 452.371 311.258 452.86 311.705C458.798 317.132 459.952 327.575 458.635 334.269C455.657 349.393 442.796 361.865 427.277 370.624C416.04 376.966 403.449 381.397 390.348 384.823C366.513 391.054 341.355 393.678 316.406 390.461C288.327 386.84 257.727 378.37 240.511 359.641L237.465 355.4C228.727 341.515 231.185 326.948 237.411 312.802C260.317 333.133 294.953 342.061 328.752 343.919C363.621 345.835 401.5 340.213 430.728 324.694C438.566 320.532 444.683 315.72 451.753 310.917Z" fill="#FFFBFB"/>
<path d="M304.212 362.172C304.802 362.024 305.278 361.978 305.89 362.085C307.256 362.324 308.339 362.968 309.085 364.235C309.66 365.212 310.041 367.263 309.615 368.389C308.472 371.406 301.821 373.65 299.197 374.785C298.592 374.798 297.913 374.852 297.315 374.686C296.093 374.346 294.955 373.038 294.507 371.804C293.943 370.252 294.221 369.098 294.746 367.606C297.08 365.064 301.072 363.337 304.212 362.172Z" fill="white"/>
<path d="M266.315 351.387C266.757 351.38 267.163 351.363 267.609 351.413C269.313 351.606 270.368 351.991 271.189 352.858C272.118 353.838 272.023 354.428 271.599 355.466C268.601 357.685 261.573 359.066 256.927 359.897L253.707 359.828C252.171 359.678 251.116 359.265 250.305 358.518C249.263 357.558 249.595 356.635 250.092 355.624C252.92 353.758 262.009 352.024 266.315 351.387Z" fill="white"/>
<path d="M286.318 359.952C286.974 359.867 287.394 359.874 288.033 360.017C289.756 360.403 290.869 361.025 291.592 362.202C292.059 362.963 292.142 363.903 291.543 364.647C289.884 366.705 279 369.912 275.601 370.545C274.735 370.478 273.758 370.412 272.952 370.176C271.237 369.672 270.39 368.613 269.68 367.519C269.698 366.871 269.661 366.203 270.187 365.627C272.138 363.493 282.635 360.834 286.318 359.952Z" fill="white"/>
<path d="M158.242 125.645C165.701 130.844 173.031 136.118 181.001 140.876C224.905 167.094 277.855 183.505 333.874 185.989C407.838 189.269 482.372 165.075 537.131 128.453C531.333 139.366 523.768 149.536 514.981 159.223C508.904 165.495 502.888 171.632 495.966 177.398C473.21 196.358 443.42 212.687 411.681 221.87C398.471 225.691 384.719 228.85 370.706 230.457C335.92 234.448 297.902 231.329 265.746 220.431C250.109 215.131 235.837 207.345 223.11 198.735C211.563 190.925 200.834 182.443 191.55 173.053C177.343 158.686 166.602 142.354 158.242 125.645Z" fill="#FFFBFB"/>
<path d="M295.344 204.546C297.284 204.321 298.436 204.472 300.273 204.792C301.2 205.243 302.051 205.595 302.552 206.268C303.418 207.436 303.213 208.598 302.378 209.756C301.316 211.229 293.252 214.259 290.641 214.932C289.801 215.038 289.088 215.115 288.212 215.076C286.526 215 284.643 214.043 283.823 213.196C282.913 212.255 282.808 211.005 283.512 209.999C284.98 207.897 291.957 205.557 295.344 204.546Z" fill="white"/>
<path d="M277.007 193.933L278.566 193.791C280.555 194.344 281.361 194.987 282.699 196.216C282.862 196.894 283.251 197.691 282.927 198.352C281.998 200.25 278.974 201.521 276.874 202.627C273.033 204.648 269.267 206.892 265.134 208.555C264.154 208.658 263.011 208.776 262.034 208.628C260.86 208.45 259.763 207.828 259.125 207.074C258.421 206.245 258.379 204.759 258.835 203.829C260.438 200.568 272.697 195.29 277.007 193.933Z" fill="white"/>
<path d="M258.489 185.298L259.292 185.272C261.263 185.301 263.579 185.955 264.587 187.048C265.581 188.126 265.247 189.821 264.679 190.961C261.914 192.531 258.424 193.588 255.23 194.794C250.29 196.659 245.425 198.637 240.177 200.158L239.114 200.179C237.643 200.158 236.412 199.731 235.434 199.071C233.882 198.023 234.006 196.745 234.034 195.41C236.613 193.106 243.251 191.278 247.119 189.709C250.707 188.253 254.368 186.025 258.489 185.298Z" fill="white"/>
</svg>
