<svg width="682" height="641" viewBox="0 0 682 641" fill="none" xmlns="http://www.w3.org/2000/svg">
<g clip-path="url(#clip0_50_1253)">

<path d="M348.049 -1L349.68 -0.881207C350.704 -0.283313 351.378 0.228827 351.876 1.17838C353.77 4.78777 354.54 9.45685 355.481 13.3109L359.766 30.7726C373.349 31.4806 387.057 35.8649 398.364 41.7581C420.053 53.0622 432.712 70.398 437.813 90.2984C448.136 91.3912 458.273 93.3981 468.245 95.7542C473.982 97.1097 479.798 98.8672 485.623 99.9159C486.728 100.115 487.617 100.079 488.715 99.9049C495.209 98.8774 502.367 98.6713 508.974 98.6469C517.678 98.6147 526.734 98.9144 535.144 100.866C543.467 102.798 552.825 105.973 557.01 112.431C561.714 119.687 557.968 128.297 554.877 135.505C542.911 163.402 520.39 188.717 493.838 209.089C482.947 217.444 471.198 224.778 458.793 231.654L456.359 232.993C456.243 233.056 456.028 233.072 456.011 233.183C455.951 233.595 456.924 235.089 457.148 235.516C460.031 241.038 459.213 245.462 456.964 251.012C469.833 264.609 474.741 283.388 469.053 299.84C468.122 302.533 466.821 305.09 465.423 307.649C465.127 308.19 463.818 310.006 463.832 310.512C463.848 311.153 465.196 312.349 465.687 312.917C467.135 314.591 468.422 316.332 469.605 318.132C475.494 327.098 477.769 337.764 476.103 347.778C474.889 355.081 472.109 362.037 467.413 368.42C449.022 393.416 413.732 406.177 379.914 413.266L380.003 483.82C390.472 479.968 397.192 473.992 402.509 465.906C403.536 464.344 404.262 461.925 405.695 460.649C406.54 459.899 407.156 459.965 408.33 459.858C408.804 460.155 409.248 460.402 409.621 460.795C411.737 463.023 411.217 475.337 410.966 478.499C408.728 506.604 378.309 529.562 353.31 547.123L348.613 550.558C335.605 540.481 321.747 531.222 310.452 519.823C296.062 505.298 287.984 491.033 287.889 472.384C287.872 469.062 287.65 465.458 288.289 462.171C288.538 460.888 288.725 460.495 290.039 459.735C291.826 459.81 291.847 459.86 293.211 460.795L293.628 461.754C298.013 471.429 306.651 479.225 318.38 483.54C318.899 481.84 318.549 479.674 318.53 477.921L318.458 466.766L318.151 416.666C311.679 416.318 304.904 414.969 298.627 413.703C281.605 410.269 264.054 405.142 249.743 396.884C226.04 383.204 211.55 364.651 214.652 340.822C215.196 336.64 216.66 332.289 218.02 328.235L222.5 316.435C223.11 315.05 225.017 312.408 225.043 311.146C225.049 310.824 224.198 309.628 224.014 309.293L220.872 303.025C219.684 300.266 218.994 297.466 218.368 294.604C214.691 277.807 218.969 261.667 227.694 246.369C227.282 243.55 227.042 240.148 227.72 237.361L228.275 235.189C228.387 234.765 228.812 234.324 228.62 233.918C228.599 233.874 227.368 233.191 227.23 233.11L221.424 229.48C195.991 213.069 175.623 193.298 159.467 170.666C151.485 159.483 144.875 147.436 140.689 135.006C138.645 128.937 136.766 121.268 139.033 115.093L139.285 114.449C140.5 111.225 142.378 109.006 145.648 106.848C148.452 104.997 152.245 103.625 155.624 102.558C173.169 97.0192 193.388 98.6461 211.661 100.485C212.902 100.61 213.811 100.724 215.035 100.415C218.9 99.4391 222.669 97.9696 226.501 96.8721C237.063 93.8481 248.524 90.9734 259.659 89.7965C261.564 78.9054 267.248 68.351 275.409 59.5022C290.694 42.9279 312.767 33.5858 338.073 30.5554L345.333 1.87303C345.795 0.397965 346.438 -0.224311 348.049 -1Z" fill="white"/>
<path d="M107.664 278.974L108.792 279.011C110.361 279.944 110.584 280.124 111.438 281.697C111.324 283.619 111.362 283.953 110.225 285.5C107.7 286.722 105.271 287.078 102.523 287.492C100.961 287.408 100.22 287.02 98.9011 286.226C97.8338 284.392 98.0234 284.018 98.2117 281.99C100.695 279.516 104.31 279.382 107.664 278.974Z" fill="#FB773F"/>
<path d="M534.528 227.87C537.263 227.863 537.353 227.77 539.319 228.679L539.359 229.585C537.553 231.108 534.04 231.504 530.863 232.097C529.577 232.158 528.495 232.101 527.223 232.023C525.914 231.176 525.935 231.184 526.021 230.12C527.769 228.87 531.715 228.407 534.528 227.87Z" fill="#FB773F"/>
<path d="M159.085 227.916C159.721 227.861 160.296 227.837 160.935 227.906C162.317 228.055 164.135 228.324 164.919 228.921C164.958 229.489 164.899 229.494 164.239 229.926C163.028 230.092 161.731 229.92 160.559 229.737C159.445 229.563 158.804 229.366 158.242 228.854C158.348 228.336 158.37 228.308 159.085 227.916Z" fill="#FB773F"/>
<path d="M170.886 274.73C172.837 274.693 174.268 274.725 176.169 274.797C178.411 275.258 178.176 275.262 178.301 275.875C175.806 276.572 172.957 276.588 168.977 276.755L165.119 276.844C162.612 276.835 162.026 276.627 160.537 276.273C160.325 275.659 160.549 275.672 162.252 275.207C165.168 274.899 167.683 274.818 170.886 274.73Z" fill="#FB773F"/>
<path d="M525.235 274.807C527.563 274.638 530.628 274.721 532.962 274.884C535.213 275.042 535.902 275.128 537.131 275.729C536.815 276.232 536.471 276.322 535.41 276.7L535.031 276.769C533.353 276.98 527.685 276.703 525.842 276.482C524.43 276.313 524.383 276.176 523.758 275.781C524.001 275.235 523.988 275.201 525.235 274.807Z" fill="#FB773F"/>
<path d="M583.039 279.341C585.701 278.36 593.07 279.579 596.039 280.256C597.773 280.65 598.57 281.686 599.484 283.021C599.569 285.301 599.741 285.374 598.16 287.267C596.59 287.643 594.866 287.48 593.269 287.267C589.369 286.747 584.237 286.357 581.707 283.304C581.699 281.146 581.68 281.063 583.039 279.341Z" fill="#FB773F"/>
<path d="M99.1749 206.854C100.379 206.557 100.861 206.5 102.156 206.641C105.9 207.049 113.614 209.748 115.868 211.726C115.907 213.286 116.087 213.435 114.605 214.737C113.136 215.039 112.596 215.249 111.087 214.918C107.349 214.098 99.9589 211.731 98.0654 209.354C98.0654 208.073 98.1361 207.934 99.1749 206.854Z" fill="#FB773F"/>
<path d="M594.645 208.751C595.489 208.68 596.391 208.705 597.247 208.698L599.151 209.663C599.694 210.689 599.677 210.784 599.005 211.791C595.302 213.375 588.935 214.258 584.369 215.071C582.068 215.135 581.363 215.021 579.639 214.293L579.477 213.007C581.979 210.705 589.85 209.672 594.645 208.751Z" fill="#FB773F"/>
<path d="M119.806 215.274C121.11 214.993 121.85 215.04 123.158 215.333C129.837 216.831 136.483 219.098 142.956 221.016C145.709 221.832 150.124 222.667 151.556 224.622C151.284 225.877 150.764 226.448 149.634 227.431L148.226 227.864C144.776 227.567 141.505 226.38 138.315 225.458L121.344 220.33C119.428 219.684 118.813 219.19 118.124 217.805C118.464 216.458 118.487 216.27 119.806 215.274Z" fill="#FB773F"/>
<path d="M575.34 215.109L576.239 215.086C578.128 215.177 578.196 215.481 579.37 216.69C579.491 217.783 579.621 218.342 579.086 219.381C578.704 220.122 578.126 220.517 577.367 220.961C574.83 222.441 571.177 223.249 568.303 224.183L550.421 229.993C549.33 229.951 548.593 229.746 547.563 229.458C546.301 228.066 546.278 227.803 546.046 226.127C546.305 225.737 546.485 225.298 546.824 224.958C548.033 223.74 552.366 222.661 554.069 222.09C561.126 219.718 568.045 216.866 575.34 215.109Z" fill="#FB773F"/>
<path d="M541.71 274.865L542.343 274.754C545.16 274.4 576 276.528 578.456 277.544C579.258 277.876 579.507 278.449 579.474 278.989C579.417 279.98 578.57 280.41 577.359 281.075C573.577 281.226 569.778 280.734 566.042 280.449L541.716 278.326C540.235 277.676 539.904 277.38 539.359 276.393C539.944 275.384 540.028 275.43 541.71 274.865Z" fill="#FB773F"/>
<path d="M151.353 274.901L155.325 274.714C156.816 274.771 157.437 275.311 158.227 275.873C158.272 276.792 158.267 276.975 157.436 277.778C154.574 278.635 150.493 278.823 147.266 279.134L124.839 280.963L124.375 281.038C122.59 281.144 120.05 281.224 118.857 280.399C117.827 279.686 118.091 279.438 118.405 278.628C118.837 278.373 119.177 278.067 119.7 277.863C121.108 277.315 126.267 277.088 128.244 276.935L151.353 274.901Z" fill="#FB773F"/>
<mask id="path-15-inside-1_50_1253" fill="white">
<path d="M568.734 377C569.794 377.103 570.33 377.035 571.233 377.564C572.974 378.583 574.078 380.356 575.036 381.917C578.573 387.682 580.806 394.858 581.982 401.256C591.135 451.037 563.923 499.089 520.324 531.783C504.3 543.8 485.355 553.945 466.466 562.357C439.752 574.254 409.076 581.274 385.782 598.088C376.87 604.521 368.644 613.837 365.158 623.405C364.313 625.722 364.445 629.984 362.768 631.689C362.15 632.318 361.363 632.613 360.374 632.536C359.195 632.443 358.544 631.885 358.06 631.024C357.371 629.801 357.151 627.785 356.783 626.432C355.874 623.086 354.876 619.979 353.023 616.912C346.031 605.344 335.341 596.801 322.539 589.827C308.522 582.192 292.788 576.65 277.619 570.883C255.999 562.665 234.559 553.875 215.409 541.914C203.024 534.178 191.914 525.134 181.942 515.22C153.066 486.511 134.743 448.163 138.483 410.042C139.303 401.675 142.697 393.562 147.024 386.066C148.217 383.997 149.302 381.654 151.413 380.146C153.367 380.072 153.439 379.997 155.124 381.027C155.343 381.43 155.693 381.798 155.783 382.236C155.909 382.855 155.448 384.26 155.321 384.965L153.787 392.832C153.178 397.326 153.174 402.132 153.86 406.619L153.985 407.407C154.372 409.982 155.044 412.23 156.014 414.682C159.477 423.425 165.871 429.897 175.617 434.005C179.337 435.397 183.723 436.513 187.815 436.516C190.723 436.519 194.262 435.572 197.004 436.418C197.739 437.254 198.423 438.097 198.177 439.223C198.015 439.964 197.704 440.35 197.034 440.809C192.707 443.773 183.26 443.592 178.075 442.908C168.011 441.579 160.284 437.877 154.212 430.862C152.227 428.568 150.691 426.036 148.735 423.749C149.809 435.316 151.783 446.661 155.963 457.749C160.778 470.519 168.144 482.342 176.784 493.513C192.439 513.754 212.065 529.951 236.478 542.579C252.093 550.657 268.886 557.175 285.501 563.615C308.955 572.707 333.061 581.007 350.873 597.516C354.584 600.956 357.498 605.122 360.465 609.035C366.698 601.903 372.224 595.337 380.428 589.619C400.089 575.921 424.667 568.586 447.56 559.788C473.62 549.771 498.632 536.679 519.429 519.916C551.553 494.021 572.331 459.372 573.488 421.495L567.738 428.982C561.279 436.25 551.803 441.372 541.022 442.453C536.212 442.937 528.365 443.522 524.407 440.849C523.786 439.841 523.897 439.103 523.993 438.015C524.571 437.209 524.807 436.587 525.952 436.283C527.226 435.946 529.085 436.27 530.412 436.345C536.122 436.669 541.368 435.786 546.484 433.569C565.037 425.531 568.372 406.679 566.709 390.769C566.35 387.325 564.429 382.024 565.655 378.812C566.372 378.041 566.798 377.528 567.929 377.209L568.734 377Z"/>
</mask>
<path d="M568.734 377C569.794 377.103 570.33 377.035 571.233 377.564C572.974 378.583 574.078 380.356 575.036 381.917C578.573 387.682 580.806 394.858 581.982 401.256C591.135 451.037 563.923 499.089 520.324 531.783C504.3 543.8 485.355 553.945 466.466 562.357C439.752 574.254 409.076 581.274 385.782 598.088C376.87 604.521 368.644 613.837 365.158 623.405C364.313 625.722 364.445 629.984 362.768 631.689C362.15 632.318 361.363 632.613 360.374 632.536C359.195 632.443 358.544 631.885 358.06 631.024C357.371 629.801 357.151 627.785 356.783 626.432C355.874 623.086 354.876 619.979 353.023 616.912C346.031 605.344 335.341 596.801 322.539 589.827C308.522 582.192 292.788 576.65 277.619 570.883C255.999 562.665 234.559 553.875 215.409 541.914C203.024 534.178 191.914 525.134 181.942 515.22C153.066 486.511 134.743 448.163 138.483 410.042C139.303 401.675 142.697 393.562 147.024 386.066C148.217 383.997 149.302 381.654 151.413 380.146C153.367 380.072 153.439 379.997 155.124 381.027C155.343 381.43 155.693 381.798 155.783 382.236C155.909 382.855 155.448 384.26 155.321 384.965L153.787 392.832C153.178 397.326 153.174 402.132 153.86 406.619L153.985 407.407C154.372 409.982 155.044 412.23 156.014 414.682C159.477 423.425 165.871 429.897 175.617 434.005C179.337 435.397 183.723 436.513 187.815 436.516C190.723 436.519 194.262 435.572 197.004 436.418C197.739 437.254 198.423 438.097 198.177 439.223C198.015 439.964 197.704 440.35 197.034 440.809C192.707 443.773 183.26 443.592 178.075 442.908C168.011 441.579 160.284 437.877 154.212 430.862C152.227 428.568 150.691 426.036 148.735 423.749C149.809 435.316 151.783 446.661 155.963 457.749C160.778 470.519 168.144 482.342 176.784 493.513C192.439 513.754 212.065 529.951 236.478 542.579C252.093 550.657 268.886 557.175 285.501 563.615C308.955 572.707 333.061 581.007 350.873 597.516C354.584 600.956 357.498 605.122 360.465 609.035C366.698 601.903 372.224 595.337 380.428 589.619C400.089 575.921 424.667 568.586 447.56 559.788C473.62 549.771 498.632 536.679 519.429 519.916C551.553 494.021 572.331 459.372 573.488 421.495L567.738 428.982C561.279 436.25 551.803 441.372 541.022 442.453C536.212 442.937 528.365 443.522 524.407 440.849C523.786 439.841 523.897 439.103 523.993 438.015C524.571 437.209 524.807 436.587 525.952 436.283C527.226 435.946 529.085 436.27 530.412 436.345C536.122 436.669 541.368 435.786 546.484 433.569C565.037 425.531 568.372 406.679 566.709 390.769C566.35 387.325 564.429 382.024 565.655 378.812C566.372 378.041 566.798 377.528 567.929 377.209L568.734 377Z" fill="#FB773F"/>
<path d="M568.734 377L569.412 370.033L568.175 369.913L566.973 370.225L568.734 377ZM571.233 377.564L574.769 371.522L574.768 371.522L571.233 377.564ZM575.036 381.917L569.069 385.577L569.069 385.578L575.036 381.917ZM581.982 401.256L575.097 402.521L575.097 402.522L581.982 401.256ZM520.324 531.783L516.124 526.183L516.124 526.183L520.324 531.783ZM466.466 562.357L469.314 568.752L469.314 568.752L466.466 562.357ZM385.782 598.088L389.879 603.764L389.879 603.764L385.782 598.088ZM365.158 623.405L371.735 625.802L371.735 625.801L365.158 623.405ZM362.768 631.689L357.776 626.781L357.776 626.782L362.768 631.689ZM360.374 632.536L359.825 639.515L359.828 639.515L360.374 632.536ZM358.06 631.024L364.161 627.592L364.16 627.591L358.06 631.024ZM356.783 626.432L363.538 624.597L363.538 624.597L356.783 626.432ZM353.023 616.912L359.014 613.292L359.014 613.291L353.023 616.912ZM322.539 589.827L325.888 583.68L325.888 583.68L322.539 589.827ZM277.619 570.883L280.107 564.34L280.107 564.34L277.619 570.883ZM215.409 541.914L211.7 547.851L211.7 547.851L215.409 541.914ZM181.942 515.22L186.877 510.256L186.877 510.255L181.942 515.22ZM138.483 410.042L145.449 410.725L145.449 410.725L138.483 410.042ZM147.024 386.066L153.087 389.565L153.088 389.563L147.024 386.066ZM151.413 380.146L151.147 373.151L149.051 373.231L147.343 374.451L151.413 380.146ZM155.124 381.027L161.271 377.679L160.374 376.033L158.775 375.055L155.124 381.027ZM155.783 382.236L162.642 380.837L162.641 380.836L155.783 382.236ZM155.321 384.965L162.192 386.305L162.201 386.257L162.21 386.208L155.321 384.965ZM153.787 392.832L146.917 391.492L146.878 391.691L146.85 391.892L153.787 392.832ZM153.86 406.619L146.941 407.677L146.943 407.694L146.946 407.711L153.86 406.619ZM153.985 407.407L160.907 406.365L160.903 406.34L160.899 406.315L153.985 407.407ZM156.014 414.682L149.506 417.259L149.506 417.259L156.014 414.682ZM175.617 434.005L172.898 440.456L173.03 440.511L173.164 440.562L175.617 434.005ZM187.815 436.516L187.82 429.516L187.82 429.516L187.815 436.516ZM197.004 436.418L202.261 431.796L200.956 430.311L199.067 429.729L197.004 436.418ZM198.177 439.223L205.015 440.722L205.016 440.717L198.177 439.223ZM197.034 440.809L193.081 435.032L193.079 435.033L197.034 440.809ZM178.075 442.908L178.991 435.968L178.991 435.968L178.075 442.908ZM154.212 430.862L148.918 435.442L148.919 435.443L154.212 430.862ZM148.735 423.749L154.055 419.2L139.726 402.445L141.765 424.397L148.735 423.749ZM155.963 457.749L149.413 460.219L149.413 460.219L155.963 457.749ZM176.784 493.513L182.321 489.231L182.321 489.231L176.784 493.513ZM236.478 542.579L233.262 548.797L233.262 548.797L236.478 542.579ZM285.501 563.615L288.031 557.088L288.031 557.088L285.501 563.615ZM350.873 597.516L346.114 602.65L346.114 602.65L350.873 597.516ZM360.465 609.035L354.887 613.264L360.08 620.112L365.736 613.641L360.465 609.035ZM380.428 589.619L376.426 583.876L376.426 583.876L380.428 589.619ZM447.56 559.788L450.071 566.322L450.071 566.322L447.56 559.788ZM519.429 519.916L523.822 525.365L523.822 525.365L519.429 519.916ZM573.488 421.495L580.485 421.708L581.147 400.031L567.937 417.231L573.488 421.495ZM567.738 428.982L572.971 433.631L573.137 433.444L573.29 433.245L567.738 428.982ZM541.022 442.453L540.324 435.488L540.323 435.488L541.022 442.453ZM524.407 440.849L518.448 444.522L519.24 445.806L520.489 446.65L524.407 440.849ZM523.993 438.015L518.305 433.935L517.188 435.492L517.02 437.4L523.993 438.015ZM525.952 436.283L524.16 429.516L524.156 429.517L525.952 436.283ZM530.412 436.345L530.808 429.357L530.806 429.356L530.412 436.345ZM546.484 433.569L543.701 427.146L543.7 427.146L546.484 433.569ZM566.709 390.769L559.747 391.495L559.747 391.496L566.709 390.769ZM565.655 378.812L560.527 374.047L559.601 375.044L559.116 376.315L565.655 378.812ZM567.929 377.209L566.167 370.435L566.098 370.453L566.029 370.472L567.929 377.209ZM568.057 383.967C568.254 383.986 568.429 384.001 568.573 384.012C568.644 384.017 568.711 384.022 568.766 384.026C568.824 384.03 568.868 384.034 568.908 384.037C568.991 384.043 569.019 384.046 569.025 384.046C569.026 384.047 568.984 384.042 568.913 384.031C568.84 384.019 568.739 384 568.62 383.969C568.499 383.939 568.373 383.901 568.246 383.856C567.984 383.762 567.797 383.663 567.699 383.606L574.768 371.522C573.566 370.819 572.39 370.413 571.172 370.214C570.671 370.132 570.227 370.097 569.982 370.078C569.672 370.054 569.583 370.05 569.412 370.033L568.057 383.967ZM567.698 383.605C567.597 383.547 567.688 383.568 567.964 383.912C568.265 384.288 568.568 384.761 569.069 385.577L581.003 378.258C580.194 376.939 578.263 373.567 574.769 371.522L567.698 383.605ZM569.069 385.578C572.007 390.366 574.016 396.638 575.097 402.521L588.866 399.991C587.596 393.077 585.139 384.998 581.002 378.257L569.069 385.578ZM575.097 402.522C583.606 448.8 558.435 494.455 516.124 526.183L524.523 537.384C569.411 503.723 598.664 453.275 588.866 399.99L575.097 402.522ZM516.124 526.183C500.665 537.776 482.228 547.675 463.618 555.963L469.314 568.752C488.482 560.215 507.936 549.823 524.523 537.384L516.124 526.183ZM463.618 555.963C450.463 561.821 436.704 566.326 422.333 571.844C408.272 577.242 394.088 583.459 381.685 592.412L389.879 603.764C400.77 595.903 413.571 590.203 427.35 584.914C440.819 579.743 455.755 574.79 469.314 568.752L463.618 555.963ZM381.686 592.412C372.038 599.376 362.692 609.725 358.581 621.009L371.735 625.801C374.596 617.949 381.702 609.666 389.879 603.764L381.686 592.412ZM358.581 621.008C358.149 622.193 357.916 623.399 357.77 624.221C357.693 624.662 357.621 625.111 357.561 625.486C357.497 625.883 357.443 626.218 357.386 626.536C357.265 627.206 357.175 627.539 357.124 627.686C357.059 627.872 357.185 627.383 357.776 626.781L367.76 636.596C369.19 635.142 369.928 633.481 370.336 632.315C370.758 631.112 371.003 629.915 371.164 629.017C371.248 628.55 371.322 628.092 371.384 627.703C371.45 627.293 371.503 626.964 371.558 626.653C371.678 625.972 371.744 625.775 371.735 625.802L358.581 621.008ZM357.776 626.782C358.144 626.407 358.673 626.03 359.343 625.79C360.001 625.553 360.566 625.53 360.919 625.557L359.828 639.515C362.743 639.743 365.6 638.794 367.76 636.596L357.776 626.782ZM360.922 625.558C361.38 625.594 362.163 625.77 362.964 626.329C363.716 626.854 364.07 627.43 364.161 627.592L351.959 634.456C352.535 635.479 353.456 636.765 354.949 637.808C356.491 638.884 358.188 639.386 359.825 639.515L360.922 625.558ZM364.16 627.591C364.295 627.831 364.321 627.949 364.284 627.832C364.251 627.729 364.2 627.545 364.128 627.23C364.052 626.895 363.992 626.591 363.893 626.119C363.809 625.713 363.69 625.155 363.538 624.597L350.028 628.267C350.177 628.815 350.159 628.93 350.474 630.324C350.673 631.2 351.075 632.885 351.96 634.458L364.16 627.591ZM363.538 624.597C362.585 621.086 361.384 617.215 359.014 613.292L347.031 620.532C348.368 622.744 349.164 625.086 350.028 628.267L363.538 624.597ZM359.014 613.291C351.155 600.289 339.318 590.996 325.888 583.68L319.191 595.974C331.364 602.606 340.907 610.399 347.032 620.533L359.014 613.291ZM325.888 583.68C311.339 575.756 295.013 570.007 280.107 564.34L275.132 577.426C290.563 583.293 305.704 588.628 319.191 595.974L325.888 583.68ZM280.107 564.34C258.529 556.138 237.644 547.549 219.117 535.977L211.7 547.851C231.475 560.202 253.469 569.192 275.132 577.426L280.107 564.34ZM219.117 535.977C207.218 528.545 196.515 519.837 186.877 510.256L177.006 520.184C187.313 530.431 198.83 539.812 211.7 547.851L219.117 535.977ZM186.877 510.255C159.015 482.555 141.973 446.166 145.449 410.725L131.516 409.358C127.514 450.16 147.117 490.468 177.006 520.184L186.877 510.255ZM145.449 410.725C146.135 403.737 149.018 396.613 153.087 389.565L140.962 382.566C136.376 390.511 132.472 399.613 131.516 409.358L145.449 410.725ZM153.088 389.563C153.384 389.05 153.799 388.298 154.008 387.929C154.28 387.448 154.501 387.077 154.71 386.761C155.126 386.133 155.37 385.922 155.482 385.842L147.343 374.451C143.655 377.085 141.679 381.322 140.961 382.568L153.088 389.563ZM151.678 387.141C151.81 387.136 151.933 387.131 152.04 387.127C152.15 387.122 152.241 387.119 152.323 387.116C152.405 387.113 152.468 387.111 152.518 387.109C152.568 387.108 152.597 387.108 152.611 387.108C152.643 387.108 152.578 387.109 152.456 387.1C152.323 387.089 152.134 387.067 151.91 387.019C151.8 386.995 151.691 386.968 151.585 386.937C151.48 386.906 151.384 386.874 151.299 386.843C151.132 386.781 151.021 386.727 150.984 386.709C150.953 386.693 150.969 386.7 151.061 386.753C151.153 386.806 151.281 386.883 151.472 387L158.775 375.055C158.09 374.636 156.658 373.717 154.829 373.327C153.901 373.129 153.098 373.105 152.549 373.108C152.085 373.11 151.495 373.138 151.147 373.151L151.678 387.141ZM148.977 384.376C149.181 384.751 149.379 385.053 149.476 385.199C149.519 385.263 149.582 385.356 149.592 385.371C149.616 385.408 149.616 385.408 149.607 385.394C149.594 385.374 149.483 385.201 149.356 384.935C149.224 384.659 149.043 384.216 148.924 383.636L162.641 380.836C162.329 379.305 161.632 378.21 161.396 377.843C161.324 377.731 161.259 377.633 161.218 377.572C161.162 377.489 161.159 377.484 161.137 377.45C161.103 377.4 161.176 377.505 161.271 377.679L148.977 384.376ZM148.924 383.634C148.865 383.348 148.837 383.102 148.822 382.915C148.807 382.726 148.804 382.567 148.805 382.448C148.806 382.219 148.824 382.058 148.831 381.995C148.839 381.926 148.846 381.895 148.842 381.915C148.839 381.933 148.831 381.973 148.815 382.044C148.799 382.114 148.78 382.198 148.754 382.304C148.726 382.42 148.703 382.512 148.667 382.658C148.636 382.785 148.597 382.945 148.559 383.109C148.523 383.268 148.475 383.484 148.432 383.723L162.21 386.208C162.197 386.282 162.195 386.271 162.262 385.998C162.309 385.808 162.4 385.445 162.479 385.092C162.557 384.743 162.664 384.225 162.732 383.653C162.786 383.209 162.901 382.109 162.642 380.837L148.924 383.634ZM148.45 383.626L146.917 391.492L160.658 394.172L162.192 386.305L148.45 383.626ZM146.85 391.892C146.158 397.004 146.147 402.484 146.941 407.677L160.78 405.562C160.202 401.779 160.199 397.647 160.724 393.772L146.85 391.892ZM146.946 407.711L147.07 408.499L160.899 406.315L160.775 405.527L146.946 407.711ZM147.063 408.449C147.547 411.665 148.388 414.435 149.506 417.259L162.523 412.105C161.7 410.025 161.198 408.299 160.907 406.365L147.063 408.449ZM149.506 417.259C153.714 427.887 161.561 435.677 172.898 440.456L178.336 427.555C170.181 424.118 165.239 418.964 162.523 412.105L149.506 417.259ZM173.164 440.562C177.317 442.115 182.575 443.512 187.809 443.516L187.82 429.516C184.87 429.514 181.358 428.679 178.07 427.449L173.164 440.562ZM187.809 443.516C188.883 443.517 189.921 443.431 190.76 443.351C191.738 443.257 192.29 443.189 193.044 443.127C193.712 443.072 194.185 443.057 194.543 443.071C194.898 443.085 194.998 443.125 194.941 443.107L199.067 429.729C196.33 428.884 193.609 429.034 191.899 429.174C189.646 429.359 188.91 429.517 187.82 429.516L187.809 443.516ZM191.747 441.04C191.827 441.131 191.879 441.191 191.919 441.239C191.958 441.285 191.972 441.303 191.969 441.3C191.967 441.296 191.939 441.26 191.897 441.196C191.855 441.131 191.791 441.027 191.72 440.887C191.576 440.604 191.39 440.152 191.293 439.558C191.192 438.944 191.21 438.317 191.338 437.729L205.016 440.717C206.115 435.687 202.652 432.24 202.261 431.796L191.747 441.04ZM191.339 437.725C191.414 437.385 191.626 436.695 192.162 435.968C192.403 435.641 192.639 435.403 192.814 435.247C192.898 435.172 192.967 435.117 193.011 435.083C193.034 435.066 193.051 435.053 193.063 435.045C193.074 435.037 193.08 435.032 193.081 435.032L200.988 446.585C201.625 446.149 202.587 445.42 203.43 444.276C204.33 443.056 204.778 441.802 205.015 440.722L191.339 437.725ZM193.079 435.033C192.556 435.392 190.74 436.017 187.405 436.242C184.387 436.446 181.199 436.259 178.991 435.968L177.159 449.847C180.136 450.24 184.264 450.486 188.348 450.21C192.114 449.956 197.186 449.19 200.99 446.584L193.079 435.033ZM178.991 435.968C170.297 434.82 164.256 431.77 159.504 426.28L148.919 435.443C156.311 443.983 165.724 448.338 177.159 449.847L178.991 435.968ZM159.505 426.281C158.736 425.392 158.021 424.42 157.124 423.186C156.28 422.025 155.244 420.59 154.055 419.2L143.415 428.299C144.182 429.195 144.892 430.169 145.801 431.42C146.657 432.597 147.703 434.038 148.918 435.442L159.505 426.281ZM141.765 424.397C142.872 436.315 144.933 448.335 149.413 460.219L162.513 455.28C158.633 444.987 156.747 434.316 155.705 423.102L141.765 424.397ZM149.413 460.219C154.551 473.845 162.339 486.279 171.247 497.796L182.321 489.231C173.948 478.405 167.005 467.194 162.513 455.28L149.413 460.219ZM171.247 497.796C187.563 518.891 207.999 535.729 233.262 548.797L239.694 536.362C216.131 524.173 197.316 508.618 182.321 489.231L171.247 497.796ZM233.262 548.797C249.268 557.077 266.417 563.726 282.971 570.142L288.031 557.088C271.354 550.625 254.918 544.237 239.694 536.362L233.262 548.797ZM282.971 570.142C306.965 579.444 329.517 587.267 346.114 602.65L355.631 592.382C336.604 574.747 310.945 565.971 288.031 557.088L282.971 570.142ZM346.114 602.65C349.25 605.556 351.682 609.038 354.887 613.264L366.042 604.805C363.313 601.206 359.917 596.355 355.631 592.382L346.114 602.65ZM365.736 613.641C372.096 606.363 377.059 600.499 384.43 595.362L376.426 583.876C367.388 590.174 361.299 597.442 355.194 604.428L365.736 613.641ZM384.43 595.363C403.171 582.304 426.425 575.41 450.071 566.322L445.049 553.254C422.91 561.762 397.006 569.537 376.426 583.876L384.43 595.363ZM450.071 566.322C476.6 556.125 502.305 542.709 523.822 525.365L515.036 514.466C494.959 530.649 470.64 543.417 445.048 553.254L450.071 566.322ZM523.822 525.365C557.107 498.535 579.251 462.121 580.485 421.708L566.492 421.281C565.412 456.624 545.999 489.507 515.036 514.466L523.822 525.365ZM567.937 417.231L562.186 424.718L573.29 433.245L579.04 425.759L567.937 417.231ZM562.505 424.332C557.197 430.306 549.332 434.585 540.324 435.488L541.721 449.418C554.274 448.16 565.361 442.195 572.971 433.631L562.505 424.332ZM540.323 435.488C537.964 435.725 535.217 435.946 532.687 435.841C529.884 435.724 528.608 435.239 528.325 435.048L520.489 446.65C524.164 449.132 528.791 449.691 532.104 449.829C535.689 449.978 539.271 449.665 541.722 449.418L540.323 435.488ZM530.366 437.175C530.465 437.336 530.599 437.592 530.712 437.934C530.827 438.282 530.884 438.607 530.906 438.87C530.926 439.108 530.914 439.248 530.917 439.192C530.919 439.166 530.923 439.116 530.931 439.016C530.936 438.966 530.94 438.914 530.946 438.847C530.952 438.784 530.959 438.708 530.966 438.63L517.02 437.4C516.947 438.228 516.447 441.275 518.448 444.522L530.366 437.175ZM529.681 442.096C529.81 441.916 529.919 441.755 529.996 441.641C530.092 441.499 530.11 441.471 530.15 441.413C530.214 441.321 530.101 441.497 529.88 441.734C529.622 442.011 529.264 442.324 528.807 442.594C528.366 442.855 527.983 442.986 527.747 443.049L524.156 429.517C522.365 429.993 520.851 430.889 519.64 432.188C519.145 432.718 518.793 433.221 518.614 433.481C518.337 433.884 518.413 433.784 518.305 433.935L529.681 442.096ZM527.743 443.05C527.418 443.136 527.237 443.136 527.296 443.134C527.341 443.132 527.473 443.131 527.735 443.147C527.999 443.163 528.284 443.189 528.681 443.226C529.027 443.258 529.53 443.307 530.017 443.334L530.806 429.356C530.63 429.347 530.403 429.326 529.988 429.287C529.623 429.253 529.116 429.205 528.59 429.173C527.679 429.117 525.946 429.044 524.16 429.516L527.743 443.05ZM530.016 443.334C536.756 443.716 543.097 442.666 549.268 439.991L543.7 427.146C539.639 428.906 535.489 429.622 530.808 429.357L530.016 443.334ZM549.267 439.992C572.164 430.072 575.433 406.903 573.671 390.041L559.747 391.496C561.31 406.455 557.91 420.99 543.701 427.146L549.267 439.992ZM573.672 390.043C573.542 388.801 573.288 387.517 573.078 386.493C572.845 385.355 572.647 384.449 572.486 383.514C572.328 382.597 572.258 381.934 572.251 381.458C572.245 380.955 572.317 380.989 572.195 381.309L559.116 376.315C557.751 379.89 558.321 383.758 558.69 385.893C558.9 387.115 559.174 388.38 559.363 389.305C559.576 390.344 559.697 391.015 559.747 391.495L573.672 390.043ZM570.783 383.578C570.833 383.523 570.883 383.47 570.923 383.426C570.966 383.38 571.001 383.342 571.033 383.308C571.098 383.238 571.132 383.202 571.151 383.183C571.189 383.144 571.111 383.229 570.954 383.351C570.781 383.487 570.566 383.628 570.324 383.749C570.091 383.865 569.911 383.923 569.829 383.947L566.029 370.472C562.804 371.382 561.195 373.328 560.527 374.047L570.783 383.578ZM569.691 383.984L570.496 383.775L566.973 370.225L566.167 370.435L569.691 383.984Z" fill="white" mask="url(#path-15-inside-1_50_1253)"/>
<path d="M328.5 415.266L344.909 415.596C345.758 417.617 345.319 420.553 345.334 422.704L345.373 437.402L345.457 493.849L344.225 494.06C338.673 492.4 331.206 489.566 328.272 485.635C327.49 484.588 327.454 483.796 327.977 482.691C328.918 480.703 328.546 478.163 328.553 476.081L328.585 463.655L328.5 415.266Z" fill="#FB773F"/>
<path d="M371.329 415.445L372.895 415.266C373.823 416.193 373.257 464.284 373.253 469.976L373.286 479.063C373.308 479.854 373.107 481.551 373.402 482.256C373.586 482.695 374.089 483.003 374.431 483.377C374.384 483.86 374.408 483.942 374.169 484.468C372.401 488.361 366.34 491.216 362.045 493.122L359.524 494.06L358.83 493.657L358.865 417.053L371.329 415.445Z" fill="#FB773F"/>
<path d="M367.745 44.7207C381.157 47.3452 394.583 56.1711 401.851 65.9582C409.126 75.7534 411.886 87.5819 408.913 98.9594C407.904 102.825 406.447 106.399 404.567 110.017C403.606 111.763 402.349 113.366 401.146 114.996C400.453 111.28 399.486 107.626 397.613 104.195C393.343 96.373 385.34 92.5702 376.349 89.7433L367.745 44.7207Z" fill="#FB773F"/>
<path d="M328.032 44.8509C328.6 44.7315 329.165 44.7414 329.745 44.7207C330.154 46.1469 329.327 48.8483 329.041 50.35L326.685 63.6988L322.669 90.0956C319.616 91.0632 316.522 92.0607 313.763 93.6884C305.398 98.6236 301.388 106.002 299.151 114.996L298.902 114.976L297.313 112.14L294.336 104.988C290.489 93.4653 291.293 80.2193 297.008 69.3952C303.394 57.2968 314.822 48.9221 328.032 44.8509Z" fill="#FB773F"/>
<path d="M438.999 83.0532C443.816 83.3344 448.859 84.5902 453.534 85.5782C479.815 91.1303 505.273 101.913 525.987 116.169L514.124 124.376L502.118 132.033C500.09 131.071 498.262 129.53 496.437 128.32C493.962 126.68 491.356 125.193 488.71 123.741C472.847 115.034 455.343 108.442 436.837 104.404C438.289 97.1287 439.157 90.4194 438.999 83.0532Z" fill="#FB773F"/>
<path d="M361.059 23.4253C366.487 24.1963 371.481 25.023 376.669 26.5836C399.38 33.4175 416.02 45.7413 425.825 63.4005C434.361 78.7747 434.49 96.9511 426.618 112.497C419.099 127.345 403.581 138.373 385.244 144.576C381.86 145.647 378.5 146.446 374.908 146.94L374.975 138.453C380.492 136.533 385.826 134.444 390.76 131.686C404.652 123.921 414.655 111.135 417.426 97.8631C420.4 83.6177 415.813 69.5447 405.168 57.9564C395.576 47.5155 380.166 39.7889 364.091 37.7449L361.059 23.4253Z" fill="#FB773F"/>
<path d="M331.41 23.4253L332.085 23.8274L329.834 37.1217C326.11 37.8029 322.363 38.6634 318.838 39.8963C303.353 45.3134 289.642 55.4199 283.32 68.7335C277.034 81.9684 276.989 96.6926 283.768 109.811C291.028 123.866 302.981 132.709 319.693 138.243L319.863 146.94L309.659 143.847L295.77 137.717C281.539 130.19 270.718 116.238 267.076 102.451C262.477 85.0372 266.554 66.7881 278 51.8645C289.959 36.2733 310.385 27.1842 331.41 23.4253Z" fill="#FB773F"/>
<path d="M256.873 83.0532L257.826 83.4645C257.719 91.4138 258.33 98.6156 260.765 106.32C244.65 109.528 227.377 116.381 213.134 123.62L194.223 134.163L182.97 126.556L169.386 116.314C171.03 114.506 174.248 112.915 176.441 111.551C182.464 107.807 189.08 104.83 195.671 101.883C214.969 93.2546 235.538 86.8803 256.873 83.0532Z" fill="#FB773F"/>
<path d="M437.764 227.974L438.971 227.864C439.063 228.449 439.097 228.483 439.031 229.171C438.407 235.648 428.873 244.476 423.806 248.611C398.977 268.872 362.912 276.146 330.333 274.486C302.537 273.071 269.16 265.299 250.022 245.775C245.162 240.143 242.291 235.032 240.706 227.999C244.991 229.753 248.955 232.259 253.162 234.199C261.563 238.075 270.374 241.155 279.381 243.65C323.045 255.744 371.985 253.68 414.312 238.357C422.401 235.429 430.082 231.674 437.764 227.974Z" fill="#FB773F"/>
<path d="M432.79 112.867C440.657 114.835 448.504 116.679 456.139 119.132C469.758 123.506 483.406 129.797 494.784 136.9C486.511 141.673 476.852 145.75 467.614 149.368C453.466 154.91 439.128 159.66 424.126 163.742C408.139 167.962 391.24 170.614 374.502 172.495L374.431 151.743C381.964 150.344 388.988 148.649 395.815 145.828C412.594 138.897 427.463 126.871 432.79 112.867Z" fill="#FB773F"/>
<path d="M427.633 136.292C431.16 136.63 435.438 139.246 438.696 140.825C439.91 141.413 441.634 142.061 442.604 143.037C443.342 143.782 443.435 145.029 443.523 146.039C443.052 147.475 442.819 147.947 441.66 148.855C441.1 148.981 440.875 149.069 440.337 149.07C438.944 149.072 437.478 148.067 436.244 147.434C433.647 146.103 428.081 144.02 426.329 141.707C425.65 140.812 425.592 139.781 425.798 138.675C426.026 137.451 426.745 136.969 427.633 136.292Z" fill="#FB773F"/>
<path d="M262.181 114.997H263.031C264.377 116.114 264.883 117.802 265.704 119.162C266.752 120.896 268.029 122.583 269.343 124.217C281.433 139.256 300.46 147.065 323.17 151.391L323.163 172.495C304.918 171.026 287.553 168.756 270.067 164.595C244.729 158.732 219.371 149.458 198.359 137.618C203.106 134.823 208.436 132.486 213.662 130.195C228.475 123.701 245.334 117.984 262.181 114.997Z" fill="#FB773F"/>
<path d="M266.45 142.681L268.755 142.69C269.9 142.817 270.704 143.178 271.334 143.733C272.148 144.449 271.933 145.206 271.677 145.998C266.814 148.166 260.121 149.62 254.52 151.069C254.119 151.144 253.869 151.208 253.413 151.198C252.024 151.168 251.221 150.906 250.248 150.347C249.615 149.427 249.465 148.969 249.781 147.99C251.943 146.532 255.133 145.971 258.065 145.187L266.45 142.681Z" fill="#FB773F"/>
<path d="M348.634 6.38867C350.41 10.9663 350.786 16.4421 351.786 21.1866L357.2 46.137C360.571 64.3032 365.694 82.322 367.261 100.655C368.305 112.875 367.389 125.248 367.032 137.485L366.782 171.851L352.737 172.495L352.56 136.23C352.585 131.415 353.402 125.683 352.52 120.956C352.342 120.001 351.848 119.606 350.857 119.106L350.041 118.711L349.528 118.668C348.127 118.622 346.695 118.929 345.713 119.748C345.079 120.277 344.88 120.803 344.828 121.512C344.398 127.241 344.878 133.202 344.91 138.952L344.889 172.478L331.054 172.327L330.794 140.181C330.374 128.691 329.417 117.171 330.088 105.672C330.978 90.4246 334.448 75.8107 337.416 60.7703L348.634 6.38867Z" fill="#FB773F"/>
<path d="M447.536 251.403L448.647 251.289C455.441 259.781 458.406 271.61 456.149 281.382C452.971 295.14 440.169 306.141 425.694 313.915C393.159 331.387 349.436 335.374 311.104 329.969C283.846 326.126 258.625 317.791 242.418 299.703L237.365 292.642C229.734 280.068 230.42 264.283 236.5 251.384C240.834 255.247 245.295 258.785 250.443 262.018C280.665 281 327.091 285.653 364.798 282.638C395.334 280.197 427.807 270.215 447.536 251.403Z" fill="#FB773F"/>
<path d="M451.753 310.917C452.272 311.226 452.371 311.258 452.86 311.705C458.798 317.132 459.952 327.575 458.635 334.269C455.657 349.393 442.796 361.865 427.277 370.624C416.04 376.966 403.449 381.397 390.348 384.823C366.513 391.054 341.355 393.678 316.406 390.461C288.327 386.84 257.727 378.37 240.511 359.641L237.465 355.4C228.727 341.515 231.185 326.948 237.411 312.802C260.317 333.133 294.953 342.061 328.752 343.919C363.621 345.835 401.5 340.213 430.728 324.694C438.566 320.532 444.683 315.72 451.753 310.917Z" fill="#FB773F"/>
<path d="M304.212 362.172C304.802 362.024 305.278 361.978 305.89 362.085C307.256 362.324 308.339 362.968 309.085 364.235C309.66 365.212 310.041 367.263 309.615 368.389C308.472 371.406 301.821 373.65 299.197 374.785C298.592 374.798 297.913 374.852 297.315 374.686C296.093 374.346 294.955 373.038 294.507 371.804C293.943 370.252 294.221 369.098 294.746 367.606C297.08 365.064 301.072 363.337 304.212 362.172Z" fill="#FB773F"/>
<path d="M266.315 351.387C266.757 351.38 267.163 351.363 267.609 351.413C269.313 351.606 270.368 351.991 271.189 352.858C272.118 353.838 272.023 354.428 271.599 355.466C268.601 357.685 261.573 359.066 256.927 359.897L253.707 359.828C252.171 359.678 251.116 359.265 250.305 358.518C249.263 357.558 249.595 356.635 250.092 355.624C252.92 353.758 262.009 352.024 266.315 351.387Z" fill="#FB773F"/>
<path d="M286.318 359.952C286.974 359.867 287.394 359.874 288.033 360.017C289.756 360.403 290.869 361.025 291.592 362.202C292.059 362.963 292.142 363.903 291.543 364.647C289.884 366.705 279 369.912 275.601 370.545C274.735 370.478 273.758 370.412 272.952 370.176C271.237 369.672 270.39 368.613 269.68 367.519C269.698 366.871 269.661 366.203 270.187 365.627C272.138 363.493 282.635 360.834 286.318 359.952Z" fill="#FB773F"/>
<path d="M158.242 125.645C165.701 130.844 173.031 136.118 181.001 140.876C224.905 167.094 277.855 183.505 333.874 185.989C407.838 189.269 482.372 165.075 537.131 128.453C531.333 139.366 523.768 149.536 514.981 159.223C508.904 165.495 502.888 171.632 495.966 177.398C473.21 196.358 443.42 212.687 411.681 221.87C398.471 225.691 384.719 228.85 370.706 230.457C335.92 234.448 297.902 231.329 265.746 220.431C250.109 215.131 235.837 207.345 223.11 198.735C211.563 190.925 200.834 182.443 191.55 173.053C177.343 158.686 166.602 142.354 158.242 125.645Z" fill="#FB773F"/>
<path d="M295.344 204.546C297.284 204.321 298.436 204.472 300.273 204.792C301.2 205.243 302.051 205.595 302.552 206.268C303.418 207.436 303.213 208.598 302.378 209.756C301.316 211.229 293.252 214.259 290.641 214.932C289.801 215.038 289.088 215.115 288.212 215.076C286.526 215 284.643 214.043 283.823 213.196C282.913 212.255 282.808 211.005 283.512 209.999C284.98 207.897 291.957 205.557 295.344 204.546Z" fill="#FB773F"/>
<path d="M277.007 193.933L278.566 193.791C280.555 194.344 281.361 194.987 282.699 196.216C282.862 196.894 283.251 197.691 282.927 198.352C281.998 200.25 278.974 201.521 276.874 202.627C273.033 204.648 269.267 206.892 265.134 208.555C264.154 208.658 263.011 208.776 262.034 208.628C260.86 208.45 259.763 207.828 259.125 207.074C258.421 206.245 258.379 204.759 258.835 203.829C260.438 200.568 272.697 195.29 277.007 193.933Z" fill="#FB773F"/>
<path d="M258.489 185.298L259.292 185.272C261.263 185.301 263.579 185.955 264.587 187.048C265.581 188.126 265.247 189.821 264.679 190.961C261.914 192.531 258.424 193.588 255.23 194.794C250.29 196.659 245.425 198.637 240.177 200.158L239.114 200.179C237.643 200.158 236.412 199.731 235.434 199.071C233.882 198.023 234.006 196.745 234.034 195.41C236.613 193.106 243.251 191.278 247.119 189.709C250.707 188.253 254.368 186.025 258.489 185.298Z" fill="#FB773F"/>
</g>
<defs>
<clipPath id="clip0_50_1253">
<rect width="682" height="641" fill="white"/>
</clipPath>
</defs>
</svg>
