<svg width="395" height="356" viewBox="0 0 395 356" fill="none" xmlns="http://www.w3.org/2000/svg">
<g clip-path="url(#clip0_50_1183)">
<path d="M0 0H395V356.348H0V0Z" fill="white"/>
<path d="M251.865 25.8086C252.936 25.7277 254.048 25.917 255.086 26.1432L274.242 30.6858L318.623 41.399L334.993 45.3115C337.459 45.8968 340.845 46.2835 343.021 47.38C345.112 48.4334 346.592 50.3261 347.198 52.3953C347.583 53.7094 347.568 55.244 347.308 56.5786C346.824 59.0615 345.872 61.6047 345.118 64.0389L342.063 74.2919L334.412 99.7444L332.004 107.778C331.339 110.044 330.838 112.58 329.511 114.619C328.194 116.642 326.199 117.698 323.736 118.28L323.512 118.316L323.156 118.363C322.423 118.476 321.923 118.451 321.204 118.304L311.68 116.07L278.676 108.242L242.896 99.7997L235.884 98.1784C234.404 97.8387 232.833 97.5878 231.517 96.8487C229.794 95.8809 228.644 94.1051 228.241 92.3321C227.975 91.159 228.118 89.7666 228.374 88.6001L230.636 80.0972L235.745 61.652L241.687 40.3982L244.129 31.6857C244.423 30.8019 244.724 29.8997 245.332 29.1447C246.999 27.076 249.133 26.156 251.865 25.8086Z" fill="black"/>
<path d="M343.652 52.2866L344.153 52.2563C344.451 52.5494 344.771 52.8768 344.914 53.2607C345.166 53.9375 345.091 55.0605 344.936 55.7548C344.021 59.8482 342.514 64.0158 341.284 68.0498L335.017 88.8356L330.072 105.358C329.273 107.934 328.613 110.671 327.496 113.147L315.816 98.2158L297.587 74.3158L343.652 52.2866Z" fill="white"/>
<path d="M247.226 30.7397L278.99 70.0494L251.487 83.0146L231.156 92.5678L230.848 92.3928C230.586 91.4723 230.521 90.4712 230.704 89.5326C231.345 86.2433 232.518 82.9423 233.415 79.6909L239.612 57.4289L244.437 40.2696C245.283 37.1943 245.845 33.6363 247.226 30.7397Z" fill="white"/>
<path d="M280.308 71.8003C281.729 73.3217 282.966 75.0565 284.195 76.7077C284.873 77.6174 285.419 78.6161 286.317 79.3664C287.257 79.419 288.196 78.7717 289.027 78.3969L295.407 75.4243C297.073 78.4495 299.612 81.1958 301.708 83.9972L319.706 107.276L323.658 112.403C324.263 113.177 325.176 114.061 325.544 114.926C325.258 115.194 324.995 115.418 324.641 115.612C323.856 116.041 323.229 116.136 322.327 116.05C321.237 115.946 320.109 115.601 319.043 115.351L313.801 114.16L290.807 108.791L250.703 99.3296L240.554 96.9468C238.403 96.4617 236.172 96.0615 234.071 95.4257C233.442 95.2354 233.115 95.053 232.679 94.6041C233.179 94.1131 234.083 93.7895 234.734 93.469L239.264 91.3246L250.154 86.2968L267.06 78.2121L280.308 71.8003Z" fill="white"/>
<path d="M251.29 28.2016C252.299 28.0942 253.214 28.2187 254.197 28.4186L270.825 32.3371L311.709 42.1912L330.385 46.6355C334.417 47.5799 339.254 48.2223 342.936 49.938L322.276 59.8385L287.241 76.8175L249.022 28.9309L251.29 28.2016Z" fill="white"/>
<path d="M135.463 9.96402L135.581 9.95222C140.99 9.6543 145.379 11.1305 148.842 14.9655C150.05 16.3034 151.199 17.7978 152.85 18.7249C155.005 19.9353 157.59 19.3681 159.688 20.9852C161.126 22.0943 162.082 23.6157 162.198 25.3415C162.325 27.2393 161.686 28.9985 160.217 30.3973C158.476 32.056 156.47 32.197 154.108 32.2163C154.104 37.6782 153.849 43.1358 152.953 48.5454C152.588 50.7507 152.227 53.0735 151.284 55.1497C149.689 58.6623 146.924 60.3734 143.163 61.8114C142.884 63.1525 143.056 64.7763 143.037 66.1537C145.139 67.0522 147.444 67.7002 149.609 68.4863C155.958 70.7907 162.134 73.3092 167.671 76.992C172.243 80.0338 175.744 83.7598 178.315 88.3238C180.087 91.4704 181.306 94.8779 182.596 98.2034L186.968 109.902C187.724 112.031 187.91 114.316 189.868 115.847L195.226 108.568C195.769 107.899 196.331 107.24 196.941 106.618C197.159 106.396 197.699 105.987 197.834 105.742C198.064 105.323 198.034 104.491 198.23 103.991C198.437 103.462 199.145 102.715 199.192 102.22C199.36 100.481 199.044 99.2397 200.867 98.1488C201.129 97.9925 201.815 97.7099 201.989 97.5175C202.252 97.2276 202.458 96.3371 202.659 95.9522C203.636 94.0835 204.96 93.8242 206.948 93.1759C206.833 89.792 210.518 90.339 212.12 88.2309L212.671 87.5686C214.789 85.3335 217.216 83.274 219.969 81.6941C220.899 81.161 222.047 80.5784 223.168 80.5471C223.993 80.5242 224.737 80.8137 225.309 81.3465C225.876 81.874 226.199 82.7854 226.173 83.51C226.066 86.516 221.519 90.6693 219.185 92.6884C221.205 95.0335 222.539 97.2367 223.364 100.124C223.834 101.77 224.205 103.6 223.884 105.297C223.367 108.038 220.972 110.786 219.321 113.075L214.634 119.821L215.486 120.53C216.084 121.06 216.602 121.913 216.563 122.694C216.538 123.198 216.256 123.802 215.97 124.226C214.747 126.036 213.204 127.777 211.888 129.548L201.811 143.035L194.055 153.545C193.123 154.689 192.099 155.691 190.918 156.63C188.844 158.276 186.518 159.622 183.881 160.402C182.674 160.758 181.381 160.918 180.142 161.162C178.909 161.405 177.712 161.693 176.446 161.758C174.909 161.837 173.32 161.703 171.783 161.622L174.066 173.231C174.367 174.77 175.269 177.225 174.907 178.713C174.701 179.562 174.083 179.895 173.323 180.324L173.097 180.449L176.528 196.59L183.949 229.732L186.58 241.147C187.245 244.17 187.91 247.246 187.889 250.338C187.873 252.566 187.527 254.842 187.242 257.055L184.34 273.415L180.564 294.493L177.333 311.994C176.9 314.23 176.714 316.73 175.998 318.886C175.876 319.25 175.606 319.547 175.299 319.801C174.546 320.424 172.136 320.149 171.084 320.131L170.299 326.681C170.258 327.062 170.02 328.006 170.113 328.339C170.152 328.477 175.814 331.57 176.459 331.931L188.031 338.513C189.757 339.468 191.8 340.284 193.373 341.414C193.937 341.819 194.262 342.285 194.573 342.863C194.658 343.942 194.659 344.489 193.834 345.31C192.564 346.571 190.635 346.854 188.836 346.905C185.608 346.998 182.186 346.407 178.987 346.013L166.235 344.55L152.674 343.04C150.663 342.804 148.532 342.693 146.555 342.289C146 342.176 145.708 341.992 145.297 341.645C145.094 340.073 145.911 338.227 146.264 336.686C146.853 334.118 147.226 331.414 148.126 328.915C148.422 328.091 149.207 327.571 149.302 326.687L150.333 319.662C149.307 319.603 147.757 319.69 146.92 319.152C146.722 318.856 146.637 318.668 146.613 318.316C146.474 316.289 146.664 314.185 146.7 312.152L146.891 300.695L147.429 268.261L147.6 259.603C147.62 258.113 147.735 256.565 147.622 255.081C147.465 253.006 146.814 250.761 146.455 248.681L142.885 229.183C142.278 231.62 141.994 234.18 141.624 236.653L139.853 247.947C139.441 250.617 139.145 253.312 138.534 255.952L136.106 265.172L119.551 312.684L117.135 319.255C116.757 320.264 116.516 321.511 115.753 322.331C114.5 322.873 112.409 322.061 111.127 321.724L109.437 327.205C109.373 327.428 108.967 328.405 109.004 328.539C109.055 328.725 110.395 329.683 110.598 329.842L123.97 339.596C126.197 341.178 128.822 342.773 130.78 344.603C131.123 344.923 131.361 345.258 131.508 345.685C131.754 346.399 131.643 347.305 131.196 347.938C130.577 348.814 129.309 349.35 128.211 349.531C126.598 349.802 124.94 349.691 123.346 349.367C118.768 348.435 114.24 346.839 109.739 345.614L93.5255 341.305L86.942 339.575C86.1189 339.355 84.7699 339.138 84.0902 338.665C83.8846 338.522 83.7168 338.426 83.6956 338.181C83.5676 336.706 84.5377 334.992 84.935 333.555C85.5179 331.448 85.8693 329.421 86.6319 327.337C86.9721 326.407 87.2792 325.485 88.0032 324.729C88.6524 324.052 88.7191 323.051 88.9001 322.192L89.7822 317.931C88.5459 317.674 87.0408 317.695 85.9241 317.175C85.5217 316.694 85.3913 316.505 85.4496 315.893C85.5306 315.042 85.8465 314.134 86.0398 313.294L87.1283 308.34L91.6543 287.418L96.5142 264.705C97.3663 260.657 98.5162 256.445 98.8672 252.347C99.15 249.042 98.9074 245.642 98.7106 242.337L98.0915 231.46L95.1198 183.395C94.0362 183.07 92.668 182.791 91.7036 182.256L91.1505 168.233C86.5976 167.921 81.9374 167.989 77.3698 167.951C72.8065 167.913 68.2821 168.028 63.9695 166.457C57.6017 164.136 52.9188 159.705 50.2537 154.044C47.7545 148.735 47.4953 142.463 49.8969 137.088L53.779 129.255L61.9803 111.989L69.1898 96.9677C70.7023 93.8364 72.0875 90.4111 74.1061 87.5283C76.7777 83.7132 80.4018 80.2952 84.6407 77.8738C88.0526 75.9247 92.1106 74.873 95.8411 73.5124L118.487 65.2109L118.618 59.0156C116.606 58.3304 114.489 57.6368 112.698 56.5417C110.082 54.9419 107.827 51.7661 107.802 48.8673C107.796 48.1476 108.228 47.0741 108.122 46.4484C108.094 46.28 106.26 45.1232 105.995 44.8629C105.146 44.0298 104.583 42.7492 104.387 41.6446C104.045 39.723 104.43 38.1111 105.726 36.5416C106.874 35.151 108.719 34.2832 110.607 34.0539L110.941 34.0171C110.697 32.339 110.562 30.5122 110.819 28.8326L110.869 28.5356C111.321 25.654 112.497 22.7903 114.393 20.4221C116.455 17.846 119.733 15.7972 123.176 15.0794C123.958 14.9166 125.281 14.9997 125.949 14.7637C126.326 14.6308 127.139 13.746 127.476 13.4668C129.831 11.5111 132.313 10.4352 135.463 9.96402Z" fill="black"/>
<path d="M222.605 83.0841L223.292 83.0542L223.427 83.4321C222.923 85.707 220.799 87.6098 219.079 89.2357C218.34 89.9344 217.564 90.7787 216.691 91.3278L215.912 90.7272L214.107 89.8325C214.691 88.7881 215.724 87.8562 216.634 87.0394C218.368 85.4836 220.285 83.8675 222.605 83.0841Z" fill="white"/>
<path d="M90.5831 126.232L90.4029 140.503L84.0421 139.813C83.7435 139.736 83.6092 139.687 83.3562 139.546C83.8831 138.066 84.8942 136.502 85.6529 135.099L90.5831 126.232Z" fill="white"/>
<path d="M92.4794 318.421L103.657 320.492C104.882 320.702 107.479 320.855 108.496 321.401L106.523 328.445L103.693 328.968C99.2515 329.519 94.4224 327.861 90.9573 325.445L92.4794 318.421Z" fill="white"/>
<path d="M153.004 319.686L168.297 320.073L167.562 326.743C167.514 327.104 167.489 328.126 167.316 328.416C167.192 328.621 166.93 328.727 166.736 328.883C161.846 329.977 156.329 329.326 151.947 327.104L153.004 319.686Z" fill="white"/>
<path d="M89.4721 327.539L90.6128 328.213C93.9884 330.114 98.08 331.504 102.118 331.412C103.912 331.371 105.65 331.011 107.388 330.644C108.765 331.427 110.076 332.644 111.372 333.576C115.142 336.287 119.157 338.979 122.639 341.979C120.139 341.887 117.654 341.382 115.213 340.916C109.138 339.757 103.556 338.074 97.9006 335.764C94.4 334.334 91.4171 332.994 88.2937 330.915C88.5633 329.767 89.0478 328.648 89.4721 327.539Z" fill="white"/>
<path d="M150.78 329.448C156.597 331.736 162.558 332.787 168.655 330.696C170.502 331.397 172.256 332.561 173.974 333.503L184.575 339.362C175.071 340.238 165.268 339.228 156.329 336.187C154.084 335.422 151.96 334.427 149.816 333.461C149.761 332.248 150.448 330.632 150.78 329.448Z" fill="white"/>
<path d="M165.596 78.4678C174.406 83.5325 177.723 92.4784 180.833 100.94L185.512 113.359C181.762 112.933 177.667 113.238 173.88 113.253C173.609 109.041 172.711 104.738 172.075 100.556C171.306 95.4893 170.934 90.0804 169.207 85.1931C168.356 82.7871 167.043 80.6187 165.596 78.4678Z" fill="white"/>
<path d="M210.938 91.61C212.304 91.4785 213.854 92.4264 215.002 93.0852C218.936 95.3426 220.204 97.8725 221.174 101.915C221.407 102.886 221.617 103.919 221.365 104.905C220.958 106.5 219.654 108.184 218.716 109.569L212.81 117.937L207.388 112.869L203.105 108.994C202.299 108.263 201.246 107.451 200.651 106.576C200.216 105.937 200.595 105.309 200.805 104.66L201.088 104.392C202.424 105.131 204.11 107.223 205.697 107.201C206.087 107.018 206.311 106.833 206.469 106.448C206.512 106.34 206.564 105.873 206.539 105.791C206.421 105.419 205.741 104.966 205.421 104.719C204.309 103.863 202.167 102.543 201.609 101.355C201.487 101.095 201.687 100.835 201.786 100.584C202.096 100.317 202.733 99.6964 203.19 99.7152C203.514 99.7284 204.106 100.039 204.385 100.179C206.032 101.009 207.392 102.821 209.362 102.626C209.894 102.184 209.972 102.211 210.039 101.528C209.694 100.769 208.812 100.302 208.105 99.8276C206.961 99.0617 205.868 98.3336 204.891 97.3871C204.931 96.9093 205.113 96.6949 205.504 96.3556C208.046 94.1476 210.719 98.0469 213.026 98.6454C213.243 98.7015 213.656 98.6552 213.894 98.659C214.413 98.2867 214.488 98.2672 214.669 97.6999C214.378 96.2189 210.584 94.6574 209.325 93.524C209.467 92.6397 210.189 92.117 210.938 91.61Z" fill="white"/>
<path d="M144.683 142.591L144.967 142.702C144.905 143.372 144.602 146.003 144.158 146.462C144.015 146.612 143.179 146.87 142.953 146.965C141.752 147.469 140.329 147.913 139.471 148.855C139.496 149.51 139.425 149.56 139.945 150.061C140.197 150.115 140.651 150.276 140.892 150.265C142.013 150.214 143.75 149.485 144.884 149.172C147.987 148.315 151.091 147.397 154.297 146.906C155.332 146.747 157.026 146.447 157.9 147.115C158.415 147.508 158.543 148.113 158.622 148.681C158.581 148.797 158.59 148.939 158.499 149.029C158.366 149.16 157.106 149.426 156.844 149.498L145.585 152.168C144.419 152.443 142.654 152.642 141.662 153.199C141.423 153.333 141.457 153.316 141.415 153.578C141.336 154.07 141.417 154.407 141.79 154.78C142.805 155.794 157.152 151.256 159.825 151.27C160.153 151.578 160.208 151.88 160.237 152.294C160.252 152.512 160.205 152.86 160.038 153.031C158.986 154.109 148.618 156.188 146.332 156.677C144.817 157.001 142.381 157.166 141.346 158.164C141.332 158.381 141.296 158.646 141.367 158.86C141.523 159.332 141.805 159.626 142.243 159.884L158.499 156.073L159.119 155.944L159.227 156.177C159.19 156.419 159.173 156.758 159.015 156.966C158.255 157.971 155.29 158.494 154.047 158.8L146.302 160.687C144.76 161.022 143.066 161.205 141.567 161.645C140.956 161.825 140.808 162.008 140.543 162.514C140.61 163.229 140.562 163.248 141.162 163.784C142.851 164.253 153.201 161.252 155.519 160.765L155.063 161.021C144.155 167.013 132.427 166.929 120.304 164.332L122.403 156.97C123.104 154.286 123.521 151.076 124.726 148.57C125.029 147.939 125.686 147.508 126.395 147.283C128.933 146.478 131.895 146.846 134.528 146.305C137.924 145.608 141.398 143.754 144.683 142.591Z" fill="white"/>
<path d="M198.764 108.299L208.109 116.812C209.996 118.57 212.594 120.524 213.902 122.646C213.13 124.012 212.01 125.26 211.042 126.518L206.683 132.364L192.389 151.68C190.251 154.432 187.234 156.667 183.742 157.858C184.734 155.642 184.992 153.552 185.345 151.204L186.363 144.771L189.365 126.071L190.145 121.002C190.241 120.367 190.253 119.401 190.536 118.821C190.954 117.966 191.915 117.014 192.514 116.225C194.541 113.557 196.54 110.838 198.764 108.299Z" fill="white"/>
<path d="M130.587 26.4785C136.99 30.6486 144.017 31.3451 151.628 32.1316C151.976 37.5722 151.317 43.4496 150.353 48.823C149.739 52.2465 148.964 55.8448 145.623 57.977C141.994 60.2933 136.166 60.7199 132.25 58.6337C131.337 58.1475 130.458 57.0983 129.417 56.9347C128.806 57.0639 128.512 57.1362 128.089 57.5932C128.069 58.1037 127.952 58.4976 128.316 58.9354C128.823 59.5447 129.845 60.0946 130.573 60.4641C133.724 62.0639 136.973 62.2984 140.507 62.3412L140.462 69.7041C140.453 70.7537 140.313 71.7719 139.809 72.731C138.808 74.6363 136.629 75.9872 134.459 76.6466C131.842 77.4422 129.079 77.0305 126.645 75.9409C124.423 74.9467 122.5 73.0083 121.706 70.8852C120.738 68.2958 121.164 64.8544 121.159 62.1262L121.139 51.1524C121.134 49.7427 121.389 47.7671 120.887 46.4573C120.474 46.0512 120.293 45.9228 119.677 45.7756C119.204 45.9509 118.841 46.0564 118.326 46.1117C117.326 45.8333 116.467 45.4561 115.678 44.8227C114.472 43.856 114.019 42.5949 113.983 41.1622C113.954 40.0277 114.603 39.0933 115.433 38.2923C116.436 38.184 117.194 39.4598 118.23 39.8092C118.928 39.7434 119.489 39.5826 120.114 39.2886C122.893 37.9801 126.019 35.5949 127.624 33.1606C129.004 31.0658 129.776 28.7845 130.587 26.4785Z" fill="white"/>
<path d="M146.601 39.7583C146.793 39.7166 146.847 39.696 147.071 39.7009C147.907 39.7186 148.121 39.9448 148.656 40.4543C148.79 40.954 148.932 41.4416 148.835 41.9577C148.684 42.758 148.372 43.0963 147.643 43.5518C147.338 43.6333 146.993 43.6607 146.678 43.7095C146.273 43.5762 146.093 43.5473 145.849 43.2007C145.401 42.5653 145.416 41.5046 145.624 40.8023C145.795 40.225 146.064 40.0642 146.601 39.7583Z" fill="black"/>
<path d="M131.653 39.5844C131.867 39.5347 132.063 39.5124 132.284 39.4964C132.949 39.4491 133.465 39.5524 133.955 39.9759C134.461 40.412 134.501 40.8971 134.468 41.4963C134.425 42.2981 134.183 42.564 133.563 43.0748C132.86 43.3101 132.54 43.2666 131.827 43.079C131.292 42.6566 130.952 42.4899 130.915 41.781C130.866 40.8442 130.971 40.2958 131.653 39.5844Z" fill="black"/>
<path d="M144.342 36.4526L144.497 36.4118C145.496 36.2184 149.362 36.1575 150.165 36.6596C150.432 36.8263 150.434 37.1371 150.439 37.4095C150.451 37.9569 150.149 38.2284 149.764 38.6007L149.584 38.6369C148.93 38.733 148.212 38.6362 147.546 38.6526C146.534 38.6773 144.847 39.034 144.024 38.3822C143.725 38.1449 143.704 37.9441 143.688 37.5835C143.663 37.0344 143.935 36.803 144.342 36.4526Z" fill="black"/>
<path d="M128.907 36.4527L129.419 36.3855C131.038 36.2672 134.765 35.9564 135.979 36.9747C136.14 37.3742 136.214 37.5913 136.015 38.0186C135.796 38.4891 135.532 38.5452 135.051 38.7146C132.952 38.6642 130.713 38.9095 128.645 38.6266C128.122 38.2494 128.059 38.2501 127.906 37.6706C128.2 36.9687 128.167 36.857 128.907 36.4527Z" fill="black"/>
<path d="M141.003 43.0644C141.351 42.9819 141.692 42.9989 142.05 42.9951C142.81 43.5947 143.032 44.3913 143.468 45.1802C144.222 46.5443 145.058 47.6861 145.481 49.1856C145.131 50.7989 144.467 52.2814 143.133 53.4392C141.589 54.78 140.21 54.6878 138.213 54.6693L138.051 54.6126L137.806 54.5218C137.541 54.4289 137.386 54.3986 137.142 54.2514C136.581 53.9124 136.579 53.531 136.555 52.9823C137.83 51.2263 138.762 52.8323 140.439 52.3214C141.196 52.0907 141.683 51.5224 142.05 50.9079C142.365 50.3789 142.778 49.3175 142.554 48.7193C142.352 48.1806 141.763 47.5278 141.455 47.003C140.939 46.125 140.595 45.2268 140.262 44.2824C140.425 43.6347 140.488 43.5397 141.003 43.0644Z" fill="black"/>
<path d="M159.619 161.375L169.02 161.324L172.373 177.97C163.213 182.084 153.316 183.827 143.207 184.662C130.591 185.703 118.128 185.01 105.645 183.173L94.1696 180.577L93.8884 168.263L111.908 168.996L115.651 169.333C116.46 169.436 117.434 169.696 118.23 169.49C119.169 168.812 119.369 168.042 119.565 167.02L119.619 166.736C130.877 168.618 141.945 169.737 152.562 164.819C154.618 163.866 157.398 161.578 159.619 161.375Z" fill="white"/>
<path d="M155.688 115.419L174.663 115.482C177.765 115.485 181.125 115.18 184.192 115.47C185.133 115.559 186.123 115.862 186.831 116.448C187.473 116.979 187.855 117.639 187.876 118.428C187.94 120.792 187.179 123.498 186.807 125.846L184.28 141.668L182.77 151.471C182.564 152.754 182.475 154.112 182.157 155.372C181.978 156.076 181.601 156.586 181.05 157.095C179.224 158.784 177.583 158.576 175.179 158.615L160.515 158.586C160.848 158.209 161.219 157.821 161.471 157.394C161.897 156.672 161.867 155.936 161.592 155.179L161.53 155.018C161.989 154.201 162.656 153.269 162.685 152.335C162.721 151.168 162.405 150.265 161.489 149.433L161.337 149.299C161.168 148.438 161.04 147.391 160.574 146.62C158.513 143.206 152.17 144.891 148.955 145.729C148.479 145.854 147.333 146.323 146.891 146.209L149.582 130.624L150.967 121.662C151.15 120.451 151.273 118.064 152.014 117.095C152.786 116.086 154.426 115.616 155.688 115.419Z" fill="white"/>
<path d="M167.534 122.402L172 122.438C172.86 122.454 173.768 122.367 174.514 122.828C175.078 123.176 175.608 123.926 175.691 124.542C175.839 125.651 175.488 126.642 174.673 127.481C173.729 128.454 172.334 128.364 171.028 128.403C169.074 128.403 164.863 128.891 163.362 127.692C162.685 127.152 162.382 126.638 162.357 125.814C162.328 124.865 162.687 123.885 163.45 123.21C164.536 122.25 166.123 122.444 167.534 122.402Z" fill="black"/>
<path d="M170.094 181.567L170.461 181.541L170.686 181.741L173.875 196.399L180.513 226.565L182.733 236.478C183.715 240.597 184.917 244.89 185.121 249.103C185.279 252.372 184.674 255.67 184.158 258.895L181.825 272.402L173.573 317.702L158.106 317.359L149.329 317.146L150.139 274.156L150.296 262.814C150.359 260.373 150.649 257.773 150.424 255.342C150.331 254.336 150.022 253.361 149.829 252.37L148.585 245.714L144.279 223.152C143.925 221.655 144.361 220.324 144.637 218.841L145.658 213.155L150.292 186.308C157.183 185.331 163.591 183.845 170.094 181.567Z" fill="white"/>
<path d="M97.7804 184.025C102.388 185.117 106.97 185.768 111.686 186.328C123.793 187.766 135.504 187.768 147.638 186.662L138.733 237.655C137.566 244.388 136.92 251.184 135.319 257.849L131.85 269.652L119.452 305.472L114.098 319.813L88.3447 315.352L91.6166 300.324L98.0697 270.176L100.606 258.29C100.97 256.461 101.425 254.607 101.598 252.753C101.938 249.103 101.635 245.25 101.394 241.596L100.584 228.87L97.7804 184.025Z" fill="white"/>
<path d="M118.289 67.7725C118.714 67.9952 118.628 69.4529 118.739 69.9791C119.187 72.1193 120.196 74.0357 121.882 75.6045C124.333 77.8845 128.005 79.469 131.56 79.478C134.563 79.4857 137.629 78.4925 139.773 76.5719C142.34 74.2723 142.971 71.9073 142.983 68.7263L152.049 72.0173C154.608 73.0133 157.208 74.0775 159.367 75.6963C167.23 81.5935 167.653 89.683 169.036 98.1128L171.228 113.203L161.949 113.13C158.975 113.13 154.315 112.605 151.796 114.233C150.747 114.911 149.865 115.776 149.383 116.868C148.543 118.772 148.455 121.26 148.12 123.296L145.429 140.243C142.725 140.653 139.97 141.834 137.458 142.816C136.231 143.296 134.97 143.865 133.65 144.098C131.918 144.403 130.111 144.396 128.363 144.629C127.297 144.77 125.977 145.202 124.944 145.234C124.283 145.254 123.414 144.979 122.737 144.89L116.351 144.066L92.9715 140.924L93.1953 126.634C93.213 124.919 92.9087 122.541 93.3577 120.92C93.5293 120.299 93.9791 119.644 94.2954 119.064L96.4116 115.292L103.7 101.779L106.065 97.3006C106.733 96.0158 107.476 94.6172 107.544 93.1762C107.6 91.9846 107.499 91.0221 106.561 90.149L105.693 90.1559C104.349 90.9929 105.245 92.1955 104.992 93.4483C104.75 94.6465 104.065 95.8011 103.484 96.8886L101.016 101.504L90.6571 120.619L81.9466 136.431L80.7802 138.698C80.7435 138.776 80.5406 139.272 80.502 139.301C79.9292 139.738 74.6164 138.11 73.144 138.885C72.9106 139.342 72.7995 139.573 72.8331 140.091C73.2408 140.587 73.4742 140.744 74.1589 140.903C75.0349 141.107 76.0807 141.083 76.986 141.203L86.2014 142.416L113.47 146.082C116.442 146.511 119.454 146.76 122.401 147.307L116.761 167.019L85.6309 165.715L76.0421 165.548C74.1847 165.524 72.2541 165.587 70.4091 165.428C68.5031 165.265 66.5459 164.831 64.7807 164.164C59.0004 161.98 54.7962 157.981 52.4593 152.772C50.9179 149.336 50.4392 145.35 51.1548 141.694C51.5343 139.753 52.4131 137.923 53.2594 136.117L56.9652 128.456L69.6361 101.876L72.9426 95.158C74.3336 92.294 75.6922 89.4317 77.7405 86.8855C79.7101 84.437 82.1511 82.1631 84.9705 80.5063C89.6441 77.7603 95.2764 76.2034 100.438 74.3381L118.289 67.7725Z" fill="white"/>
</g>
<defs>
<clipPath id="clip0_50_1183">
<rect width="395" height="356" fill="white"/>
</clipPath>
</defs>
</svg>
